<svg width="53" height="53" viewBox="0 0 53 53" fill="none" xmlns="http://www.w3.org/2000/svg">
<path fill-rule="evenodd" clip-rule="evenodd" d="M39.75 53H13.25C9.73593 52.9998 6.36583 51.6038 3.88101 49.119C1.39618 46.6342 0.000153731 43.2641 0 39.75L0 13.25C0.000153731 9.73593 1.39618 6.36583 3.88101 3.88101C6.36583 1.39618 9.73593 0.000153731 13.25 0L39.75 0C43.2641 0 46.6343 1.39598 49.1192 3.88084C51.604 6.36569 53 9.73588 53 13.25V39.75C53 43.2641 51.604 46.6343 49.1192 49.1192C46.6343 51.604 43.2641 53 39.75 53Z" fill="#199BDF"/>
<path fill-rule="evenodd" clip-rule="evenodd" d="M24.8437 14.9062H39.75C41.6607 14.9061 43.4984 14.1722 44.8836 12.8562C46.2688 11.5401 47.0956 9.74227 47.1934 7.83407C47.2912 5.92586 46.6524 4.05297 45.409 2.60219C44.1656 1.1514 42.4126 0.233516 40.5119 0.0380937C40.2585 0.0240156 40.0075 0 39.75 0H13.25C9.73593 0.000153731 6.36583 1.39618 3.881 3.88101C1.39618 6.36583 0.000153731 9.73593 0 13.25L0 39.75C0.000153736 33.1611 2.61766 26.8421 7.27674 22.183C11.9358 17.5239 18.2548 14.9064 24.8437 14.9062Z" fill="#32B4FF"/>
<path fill-rule="evenodd" clip-rule="evenodd" d="M39.75 26.5C37.1294 26.5 34.5676 27.2771 32.3887 28.733C30.2097 30.189 28.5115 32.2583 27.5086 34.6794C26.5057 37.1006 26.2433 39.7647 26.7546 42.3349C27.2658 44.9052 28.5278 47.2661 30.3808 49.1192C32.2339 50.9722 34.5948 52.2342 37.1651 52.7454C39.7353 53.2567 42.3994 52.9943 44.8206 51.9914C47.2417 50.9885 49.311 49.2903 50.767 47.1113C52.2229 44.9324 53 42.3706 53 39.75V13.25C53 16.7641 51.604 20.1343 49.1192 22.6192C46.6343 25.104 43.2641 26.5 39.75 26.5Z" fill="#0082BE"/>
<path fill-rule="evenodd" clip-rule="evenodd" d="M37.3319 14.1046C37.739 13.9366 38.1834 13.8797 38.6197 13.94C39.056 14.0002 39.4685 14.1753 39.8148 14.4474C40.1611 14.7195 40.4289 15.0788 40.5907 15.4884C40.7524 15.8981 40.8024 16.3434 40.7355 16.7787C39.7704 23.055 38.001 34.556 37.0617 40.661C36.9967 41.0834 36.8239 41.4819 36.5598 41.818C36.2957 42.1541 35.9494 42.4164 35.5544 42.5795C35.1593 42.7426 34.7288 42.8011 34.3046 42.7492C33.8803 42.6973 33.4766 42.5368 33.1325 42.2833C29.8099 39.8353 24.8284 36.1651 22.2993 34.301C22.1041 34.1571 21.9429 33.9722 21.827 33.7592C21.7111 33.5463 21.6434 33.3104 21.6287 33.0684C21.6139 32.8264 21.6525 32.5841 21.7416 32.3587C21.8307 32.1332 21.9683 31.9301 22.1446 31.7636C24.4621 29.5748 29.0779 25.2156 32.2536 22.2161C32.3284 22.145 32.374 22.0486 32.3814 21.9456C32.3888 21.8427 32.3575 21.7407 32.2936 21.6597C32.2297 21.5786 32.1378 21.5244 32.036 21.5075C31.9342 21.4906 31.8298 21.5124 31.7432 21.5685C27.6712 24.2243 21.4349 28.2913 18.3785 30.2846C17.8057 30.6581 17.1619 30.9094 16.4875 31.0227C15.8131 31.136 15.1226 31.1088 14.4591 30.9429C12.7761 30.5222 10.3486 29.9152 8.18825 29.3753C7.85003 29.2908 7.54709 29.1017 7.32259 28.835C7.0981 28.5682 6.96349 28.2375 6.93794 27.8898C6.91239 27.5421 6.99721 27.1952 7.18031 26.8985C7.36341 26.6019 7.63546 26.3705 7.9577 26.2375C15.4781 23.1312 30.1953 17.0528 37.3319 14.1046Z" fill="white"/>
</svg>
