<svg width="39" height="38" viewBox="0 0 39 38" fill="none" xmlns="http://www.w3.org/2000/svg">
<rect x="0.378906" width="38" height="38" rx="19" fill="url(#paint0_linear_228_789)"/>
<path d="M19.3636 27H14.4347V12.4545H19.4631C20.9072 12.4545 22.1477 12.7457 23.1847 13.3281C24.2263 13.9058 25.0265 14.7367 25.5852 15.821C26.1439 16.9053 26.4233 18.2027 26.4233 19.7131C26.4233 21.2282 26.1416 22.5303 25.5781 23.6193C25.0194 24.7083 24.2121 25.544 23.1562 26.1264C22.1051 26.7088 20.8409 27 19.3636 27ZM17.0696 24.7202H19.2358C20.2491 24.7202 21.0942 24.5355 21.7713 24.1662C22.4484 23.7921 22.9574 23.2358 23.2983 22.4972C23.6392 21.7538 23.8097 20.8258 23.8097 19.7131C23.8097 18.6004 23.6392 17.6771 23.2983 16.9432C22.9574 16.2045 22.4531 15.6529 21.7855 15.2884C21.1226 14.919 20.2988 14.7344 19.3139 14.7344H17.0696V24.7202Z" fill="white"/>
<defs>
<linearGradient id="paint0_linear_228_789" x1="38" y1="2.25368e-06" x2="5.84754e-07" y2="38" gradientUnits="userSpaceOnUse">
<stop stop-color="#59ACF6"/>
<stop offset="1" stop-color="#418CD1"/>
</linearGradient>
</defs>
</svg>
