<svg xmlns="http://www.w3.org/2000/svg" width="38.81" height="21" viewBox="0 0 38.81 21"><path d="M29.35,1.25a1.26,1.26,0,0,0-1-.44H12.05a1.67,1.67,0,0,0-1.6,1.34L8,15.92a1.24,1.24,0,0,0,1.25,1.49.42.42,0,0,0,0-.84.47.47,0,0,1-.35-.14.45.45,0,0,1-.08-.37L11.27,2.29a.83.83,0,0,1,.78-.65H28.36a.47.47,0,0,1,.36.14.51.51,0,0,1,.08.37L26.37,15.92a.83.83,0,0,1-.79.65h-7.7a.42.42,0,1,0,0,.84h7.7a1.67,1.67,0,0,0,1.61-1.35L29.62,2.29A1.28,1.28,0,0,0,29.35,1.25Z" fill="#17e5bb"/><path d="M38.06,10.76a8.84,8.84,0,0,1-.58-1l.1-3.49V6.19c0-.3,0-1-.79-1H30.7a1.38,1.38,0,0,0-1.32,1.11L27.52,16.92a.42.42,0,0,0,.41.49h.4a.41.41,0,0,0,.41-.42.4.4,0,0,0-.32-.4L30.2,6.5a.54.54,0,0,1,.5-.42h6a.76.76,0,0,0,0,.15v0l-.11,3.52v0c0,.25.21.58.72,1.4A8.33,8.33,0,0,1,38,12.27l-.75,4.3h-.29a.42.42,0,0,0,0,.84h.64a.43.43,0,0,0,.41-.35l.83-4.7C38.86,12.06,38.67,11.72,38.06,10.76Z" fill="#17e5bb"/><path d="M14.06,13.85A4.28,4.28,0,0,0,10,17.25a3,3,0,0,0,.62,2.51,3,3,0,0,0,2.37,1,4.29,4.29,0,0,0,4.07-3.41,2.94,2.94,0,0,0-3-3.55Zm2.17,3.4A3.42,3.42,0,0,1,13,20a2.11,2.11,0,0,1-2.17-2.57,3.41,3.41,0,0,1,3.25-2.72,2.22,2.22,0,0,1,1.73.75A2.18,2.18,0,0,1,16.23,17.25Z" fill="#17e5bb"/><path d="M33.07,13.85A4.29,4.29,0,0,0,29,17.25a2.94,2.94,0,0,0,3,3.56,4.29,4.29,0,0,0,4.07-3.41,3,3,0,0,0-.62-2.5A3,3,0,0,0,33.07,13.85Zm2.17,3.4A3.41,3.41,0,0,1,32,20a2.11,2.11,0,0,1-2.17-2.57,3.42,3.42,0,0,1,3.25-2.72,2.21,2.21,0,0,1,1.73.75A2.18,2.18,0,0,1,35.24,17.25Z" fill="#17e5bb"/><path d="M8.38,4.06a.44.44,0,0,0-.44-.44H6.13a.44.44,0,1,0,0,.88H7.94A.44.44,0,0,0,8.38,4.06Z" fill="#17e5bb"/><path d="M6.78,7.43H3.34a.43.43,0,0,0-.44.44.44.44,0,0,0,.44.44H6.78a.44.44,0,0,0,.44-.44A.44.44,0,0,0,6.78,7.43Z" fill="#17e5bb"/><path d="M5.73,11.45H.44a.45.45,0,0,0,0,.89H5.73a.45.45,0,0,0,0-.89Z" fill="#17e5bb"/></svg>