<svg width="181" height="44" viewBox="0 0 181 44" fill="none" xmlns="http://www.w3.org/2000/svg">
<path d="M21.8333 2.40533L38.0774 11.792L24.2786 20.1227L22.5902 21.3547L5.18164 11.792L21.8333 2.40533Z" fill="#614FA9"/>
<path d="M39.3013 12.672L39.4177 31.504L27.3074 38.6613L22.7661 41.536L22.5332 22.4693L39.3013 12.672Z" fill="#614FA9"/>
<path d="M5.35566 12.672L21.4833 22.1173L21.7744 41.7707L4.77344 31.7973L5.35566 12.672Z" fill="#2B8C8D"/>
<path d="M23.3466 42.064H20.9013V22.704L4.19141 12.9653L5.4723 10.7947L23.3466 21.2373V42.064Z" fill="#0D0C25"/>
<path d="M39.0375 10.6164L21.3398 20.9124L22.5916 23.097L40.2893 12.801L39.0375 10.6164Z" fill="#0D0C25"/>
<path d="M6.52031 33.44L4.19141 30.7413L13.8563 22.2347L15.2537 24.992L23.2302 18.7147L25.3844 21.5307L13.9728 30.5653L12.7501 27.8667L6.52031 33.44Z" fill="white"/>
<path d="M16.6523 17.3066L23.3479 21.2373V29.0986H23.4644L26.8995 27.0453V19.184L20.2039 15.1946L16.6523 17.3066Z" fill="white"/>
<path d="M22.0085 43.648L3.43555 32.8533V11.2053L22.0085 0.35199L40.5233 11.1467V32.7947L22.0085 43.648ZM5.93912 31.3867L22.0085 40.7147L38.0779 31.328V12.672L22.0085 3.28532L5.93912 12.672V31.3867Z" fill="#0D0C25"/>
<path d="M59.8536 17.8933H52.4011V21.296H59.1549V24.112H52.4011V28.9227H49.1406V15.0773H59.8536V17.8933Z" fill="#2B8C8D"/>
<path d="M61.3086 15.0773H66.9562C71.0318 15.0773 73.1278 16.2507 73.1278 18.656C73.1278 19.3013 72.8949 19.888 72.4873 20.4747C72.0798 21.0613 71.4393 21.472 70.6824 21.7067V21.7653C71.4975 21.8827 72.1962 22.2347 72.8366 22.7627C73.4771 23.3493 73.7682 23.9947 73.7682 24.8747C73.7682 27.632 71.7304 28.9227 67.7713 28.9227H61.3086V15.0773ZM64.6273 17.7173V20.6507H67.1308C67.946 20.6507 68.5864 20.5333 68.994 20.2987C69.4597 20.064 69.6926 19.6533 69.6926 19.1253C69.6926 18.5387 69.4597 18.128 68.994 18.0107C68.5282 17.776 67.946 17.7173 67.1891 17.7173H64.6273ZM64.6273 23.1147V26.3413H67.7713C68.7029 26.3413 69.2851 26.224 69.6926 25.9893C70.1002 25.7547 70.3331 25.344 70.3331 24.816C70.3331 24.1707 70.1002 23.76 69.6344 23.4667C69.1686 23.232 68.47 23.1147 67.5384 23.1147H64.6273Z" fill="#2B8C8D"/>
<path d="M86.46 17.8933H81.9186V28.9813H78.6582V17.8933H74.0586V15.0773H86.4018V17.8933H86.46Z" fill="#2B8C8D"/>
<path d="M91.2923 15.2533C92.1074 14.96 93.039 14.8427 93.9123 14.8427C94.8439 14.8427 95.7172 14.96 96.5323 15.2533C97.3474 15.5467 98.2208 15.9573 98.9194 16.4853C99.6181 17.072 100.259 17.8347 100.666 18.7147C101.074 19.6533 101.307 20.6507 101.307 21.8827C101.307 23.1147 101.074 24.288 100.666 25.2267C100.259 26.224 99.6763 26.9867 98.9777 27.5147C98.279 28.1013 97.4639 28.512 96.5905 28.7467C95.7754 29.04 94.7856 29.1573 93.7959 29.1573C92.8061 29.1573 91.8745 29.04 91.0012 28.7467C90.1861 28.4533 89.3127 28.0427 88.6141 27.5147C87.9154 26.928 87.3914 26.1653 86.9256 25.2267C86.518 24.2293 86.2852 23.1147 86.2852 21.8827C86.2852 20.7093 86.518 19.6533 86.9256 18.7147C87.3332 17.776 87.9736 17.0133 88.6723 16.4853C89.6621 15.9573 90.419 15.5467 91.2923 15.2533ZM96.8234 18.832C96.0665 18.128 95.0768 17.7173 93.9705 17.7173C92.8643 17.7173 91.8745 18.0693 91.1176 18.832C90.3607 19.536 90.0114 20.592 90.0114 21.824C90.0114 23.2907 90.419 24.4053 91.1759 25.1093C91.9327 25.8133 92.9225 26.224 94.0288 26.224C95.135 26.224 96.0665 25.872 96.8234 25.1093C97.5803 24.4053 97.9879 23.2907 97.9879 21.824C97.9879 20.592 97.5803 19.5947 96.8234 18.832Z" fill="#2B8C8D"/>
<path d="M107.421 15.2533C108.236 14.96 109.168 14.8427 110.041 14.8427C110.973 14.8427 111.846 14.96 112.661 15.2533C113.476 15.5467 114.35 15.9573 115.048 16.4853C115.747 17.072 116.387 17.8347 116.795 18.7147C117.203 19.6533 117.435 20.6507 117.435 21.8827C117.435 23.1147 117.203 24.288 116.795 25.2267C116.387 26.224 115.805 26.9867 115.107 27.5147C114.408 28.1013 113.593 28.512 112.719 28.7467C111.904 29.04 110.915 29.1573 109.925 29.1573C108.935 29.1573 108.003 29.04 107.13 28.7467C106.315 28.4533 105.442 28.0427 104.743 27.5147C104.044 26.928 103.52 26.1653 103.055 25.2267C102.647 24.2293 102.414 23.1147 102.414 21.8827C102.414 20.7093 102.647 19.6533 103.055 18.7147C103.462 17.776 104.103 17.0133 104.801 16.4853C105.791 15.9573 106.606 15.5467 107.421 15.2533ZM112.952 18.832C112.195 18.128 111.206 17.7173 110.099 17.7173C108.993 17.7173 108.003 18.0693 107.247 18.832C106.49 19.536 106.14 20.592 106.14 21.824C106.14 23.2907 106.548 24.4053 107.305 25.1093C108.062 25.8133 109.051 26.224 110.158 26.224C111.264 26.224 112.195 25.872 112.952 25.1093C113.709 24.4053 114.117 23.2907 114.117 21.824C114.117 20.592 113.709 19.5947 112.952 18.832Z" fill="#2B8C8D"/>
<path d="M122.327 26.224H128.789V29.04H119.008V15.136H122.268V26.224H122.327Z" fill="#2B8C8D"/>
<path d="M133.562 28.9813H130.186V25.696H133.562V28.9813Z" fill="#614FA9"/>
<path d="M135.135 15.0773H141.539C145.557 15.0773 147.594 16.7787 147.594 20.1227C147.594 21.0613 147.361 21.8827 147.012 22.528C146.663 23.232 146.197 23.7013 145.557 24.0533C144.916 24.4053 144.334 24.6987 143.693 24.816C142.995 24.9333 142.296 25.1093 141.597 25.1093H138.453V28.9813H135.193L135.135 15.0773ZM138.453 17.8933V22.352H141.306C142.238 22.352 142.995 22.2347 143.461 21.8827C143.926 21.5307 144.217 20.944 144.217 20.064C144.217 19.2427 143.926 18.656 143.461 18.3627C142.995 18.0693 142.238 17.8933 141.306 17.8933C141.248 17.8933 138.453 17.8933 138.453 17.8933Z" fill="#614FA9"/>
<path d="M161.684 28.9813H157.609C156.444 27.104 155.396 25.5787 154.407 24.5813H152.194V28.9813H148.934V15.136H155.396C155.979 15.136 156.503 15.1947 156.968 15.2533C157.434 15.312 158.016 15.488 158.482 15.664C159.064 15.8987 159.472 16.1333 159.821 16.4853C160.171 16.8373 160.462 17.248 160.753 17.8347C160.986 18.4213 161.102 19.008 161.102 19.7707C161.102 20.8267 160.753 21.648 160.112 22.4107C159.472 23.1733 158.657 23.6427 157.667 23.8773C159.123 25.344 160.462 27.0453 161.684 28.9813ZM152.252 21.7067H154.814C155.804 21.7067 156.503 21.5893 156.968 21.2373C157.434 20.8853 157.667 20.416 157.667 19.712C157.667 18.5387 156.677 17.8933 154.756 17.8933H152.252V21.7067Z" fill="#614FA9"/>
<path d="M167.04 15.2533C167.855 14.96 168.787 14.8427 169.66 14.8427C170.592 14.8427 171.465 14.96 172.28 15.2533C173.095 15.5467 173.969 15.9573 174.667 16.4853C175.366 17.072 176.007 17.8347 176.414 18.7147C176.822 19.6533 177.055 20.6507 177.055 21.8827C177.055 23.1147 176.822 24.288 176.414 25.2267C176.007 26.224 175.424 26.9867 174.726 27.5147C174.027 28.1013 173.212 28.512 172.339 28.7467C171.523 29.04 170.534 29.1573 169.544 29.1573C168.554 29.1573 167.623 29.04 166.749 28.7467C165.934 28.4533 165.061 28.0427 164.362 27.5147C163.663 26.928 163.139 26.1653 162.674 25.2267C162.266 24.2293 162.033 23.1147 162.033 21.8827C162.033 20.7093 162.266 19.6533 162.674 18.7147C163.081 17.776 163.722 17.0133 164.42 16.4853C165.468 15.9573 166.225 15.5467 167.04 15.2533ZM172.63 18.832C171.873 18.128 170.883 17.7173 169.777 17.7173C168.671 17.7173 167.681 18.0693 166.924 18.832C166.167 19.536 165.818 20.592 165.818 21.824C165.818 23.2907 166.225 24.4053 166.982 25.1093C167.739 25.8133 168.729 26.224 169.835 26.224C170.941 26.224 171.873 25.872 172.63 25.1093C173.387 24.4053 173.794 23.2907 173.794 21.824C173.736 20.592 173.387 19.5947 172.63 18.832Z" fill="#614FA9"/>
</svg>
