<svg id="Layer_1" data-name="Layer 1" xmlns="http://www.w3.org/2000/svg" width="65" height="65" viewBox="0 0 65 65"><defs><style>.cls-1{fill:#fafafa;}.cls-2{fill:#af272d;}.cls-3{fill:#333;}</style></defs><title>icon-step-drink_v1</title><rect class="cls-1" width="65" height="65"/><path class="cls-2" d="M41,17.57C41.49,28,37.13,33.83,32.5,33.83S23.53,28,24,17.57Z"/><path class="cls-3" d="M40.1,50.64c-.28,0-6.77-1.09-6.77-7.42V34.57a7.84,7.84,0,0,0,4.91-2.88c3.43-4.12,4.5-11.34,2.93-19.81a.83.83,0,0,0-.82-.68H24.65a.83.83,0,0,0-.82.68c-1.57,8.47-.5,15.69,2.93,19.81a7.84,7.84,0,0,0,4.91,2.88v8.65c0,6.3-6.49,7.38-6.77,7.42a.83.83,0,0,0-.7.89.82.82,0,0,0,.83.77H40a.82.82,0,0,0,.83-.77A.83.83,0,0,0,40.1,50.64ZM28,30.62c-3-3.58-4-10.18-2.69-17.75h14.3C40.92,20.44,39.93,27,37,30.62,34.36,33.73,30.64,33.73,28,30.62Zm1.27,20a8.63,8.63,0,0,0,3.19-3.51,8.63,8.63,0,0,0,3.19,3.51Z"/></svg>