<svg xmlns="http://www.w3.org/2000/svg" width="20" height="21" viewBox="0 0 20 21"><path d="M5.78,19.25H1.37A1.37,1.37,0,0,1,0,17.88V9.27A1.37,1.37,0,0,1,1.37,7.9H6.28a.47.47,0,0,1,.46.46v8.76A4.44,4.44,0,0,0,8.87,18,53.12,53.12,0,0,0,16,17.87a1.39,1.39,0,0,0,1-.9.77.77,0,0,0-.12-.71.46.46,0,0,1-.07-.5.46.46,0,0,1,.43-.26,1.54,1.54,0,0,0,1-.78,1,1,0,0,0-.1-1.11.44.44,0,0,1-.08-.38.5.5,0,0,1,.25-.3,1.52,1.52,0,0,0,.77-1.15,1.12,1.12,0,0,0-.58-1,.45.45,0,0,1-.13-.62,1.8,1.8,0,0,0,.25-1.64,1.13,1.13,0,0,0-.9-.65A17.78,17.78,0,0,0,12.5,8,.5.5,0,0,1,12,7.9c-.27-.25-.18-.56,0-1.25.28-1,.74-2.53.27-3.58-.39-.88-.83-1.76-1.38-2A1.51,1.51,0,0,0,10,1a7.23,7.23,0,0,0,.11.78,7.77,7.77,0,0,1,.19,2.05A4.84,4.84,0,0,1,9.8,5.47l-.18.41c-.12.26-.23.54-.35.83A12.77,12.77,0,0,1,8.09,9.14a.46.46,0,0,1-.75-.52A12.22,12.22,0,0,0,8.43,6.36l.35-.84c.07-.15.13-.29.2-.43a4.21,4.21,0,0,0,.44-1.31A7,7,0,0,0,9.25,2C9.11,1.2,9,.47,9.57.23a2.46,2.46,0,0,1,1.75,0A4.6,4.6,0,0,1,13.15,2.7c.61,1.35.09,3.14-.23,4.21l0,.1a18.38,18.38,0,0,1,5-.09A2,2,0,0,1,19.46,8.1a2.56,2.56,0,0,1-.11,2.14A1.93,1.93,0,0,1,20,11.85a2.39,2.39,0,0,1-.87,1.64,1.84,1.84,0,0,1-.07,1.66,2.67,2.67,0,0,1-1.12,1.09,1.78,1.78,0,0,1,0,1,2.23,2.23,0,0,1-1.62,1.53,48.7,48.7,0,0,1-7.54.19A5.36,5.36,0,0,1,6,17.67a.41.41,0,0,1-.15-.33V8.82H1.37a.46.46,0,0,0-.46.45v8.61a.46.46,0,0,0,.46.46H5.78a.46.46,0,0,1,.46.46A.45.45,0,0,1,5.78,19.25Z" fill="#17e5bb"/></svg>