<svg id="Layer_1" data-name="Layer 1" xmlns="http://www.w3.org/2000/svg" width="65" height="65" viewBox="0 0 65 65"><defs><style>.cls-1{fill:#fafafa;}.cls-2{fill:#d8eae7;}.cls-3{fill:#fcda3e;}.cls-4{fill:#988161;}.cls-5{fill:#333;}</style></defs><title>icon-step-sleep</title><rect class="cls-1" width="65" height="65"/><path class="cls-2" d="M21.11,27.63a3.18,3.18,0,0,1,3.42,3.1l.09.05c-1,1.51-1.86,3-1.86,3H16.55v-3.1A3.18,3.18,0,0,1,20,27.63Z"/><path class="cls-3" d="M52.88,31.17v2.66H22.76s.86-1.54,1.86-3a20.12,20.12,0,0,1,1.68-2.26c1.36-1.46,2.77-1.78,7.09-1.78s16.83,1.78,16.83,1.78A2.66,2.66,0,0,1,52.88,31.17Z"/><polygon class="cls-4" points="16.55 33.83 22.75 33.83 52.88 33.83 52.88 43.57 50.22 43.57 48.45 39.15 16.55 39.15 14.79 43.57 12.12 43.57 12.12 21.43 16.55 21.43 16.55 30.73 16.55 33.83"/><path class="cls-5" d="M50.29,28.09h0c-.51-.07-12.59-1.78-16.89-1.78s-5.88.28-7.41,1.92a15.3,15.3,0,0,0-1.16,1.51,3.72,3.72,0,0,0-3.71-2.54H20a4,4,0,0,0-3,1.26v-7a.43.43,0,0,0-.43-.43H12.12a.43.43,0,0,0-.43.43V43.57a.43.43,0,0,0,.43.43h2.67a.45.45,0,0,0,.4-.27l1.65-4.15H48.16l1.67,4.15a.42.42,0,0,0,.39.27h2.66a.43.43,0,0,0,.43-.43V31.17A3.07,3.07,0,0,0,50.29,28.09Zm-23.68.72c1.24-1.34,2.51-1.64,6.78-1.64S50,28.92,50.22,28.94a2.23,2.23,0,0,1,2.23,2.23V33.4H23.5c.34-.58.89-1.49,1.48-2.38A19.31,19.31,0,0,1,26.61,28.81ZM20,28.06h1.14a2.75,2.75,0,0,1,3,2.67.09.09,0,0,0,0,.05c-.72,1.1-1.36,2.17-1.61,2.62H17V30.73A2.75,2.75,0,0,1,20,28.06ZM52.45,43.15H50.51L48.84,39a.42.42,0,0,0-.39-.27H16.55a.42.42,0,0,0-.39.27L14.5,43.15H12.55V21.85h3.58v12a.43.43,0,0,0,.42.43h35.9Z"/></svg>