<svg width="38" height="44" viewBox="0 0 38 44" fill="none" xmlns="http://www.w3.org/2000/svg">
<path d="M18.8333 2.40533L35.0774 11.792L21.2786 20.1227L19.5902 21.3547L2.18164 11.792L18.8333 2.40533Z" fill="#614FA9"/>
<path d="M36.3013 12.672L36.4177 31.504L24.3074 38.6613L19.7661 41.536L19.5332 22.4693L36.3013 12.672Z" fill="#614FA9"/>
<path d="M2.35566 12.672L18.4833 22.1173L18.7744 41.7707L1.77344 31.7973L2.35566 12.672Z" fill="#2B8C8D"/>
<path d="M20.3466 42.064H17.9013V22.704L1.19141 12.9653L2.4723 10.7947L20.3466 21.2373V42.064Z" fill="#0D0C25"/>
<path d="M36.0375 10.6164L18.3398 20.9124L19.5916 23.097L37.2893 12.801L36.0375 10.6164Z" fill="#0D0C25"/>
<path d="M3.52031 33.44L1.19141 30.7413L10.8563 22.2347L12.2537 24.992L20.2302 18.7147L22.3844 21.5307L10.9728 30.5653L9.75012 27.8667L3.52031 33.44Z" fill="white"/>
<path d="M13.6523 17.3066L20.3479 21.2373V29.0986H20.4644L23.8995 27.0453V19.184L17.2039 15.1946L13.6523 17.3066Z" fill="white"/>
<path d="M19.0085 43.648L0.435547 32.8533V11.2053L19.0085 0.35199L37.5233 11.1467V32.7947L19.0085 43.648ZM2.93912 31.3867L19.0085 40.7147L35.0779 31.328V12.672L19.0085 3.28532L2.93912 12.672V31.3867Z" fill="#0D0C25"/>
</svg>
