<svg width="38" height="44" viewBox="0 0 38 44" fill="none" xmlns="http://www.w3.org/2000/svg">
<path d="M20.3681 42.242H17.9228V22.882L1.21289 13.1433L2.49379 10.9727L20.3681 21.4153V42.242Z" fill="white"/>
<path d="M36.059 10.7948L18.3613 21.0908L19.6131 23.2754L37.3108 12.9795L36.059 10.7948Z" fill="white"/>
<path d="M3.54179 33.6179L1.21289 30.9192L10.8778 22.4126L12.2752 25.1699L20.2517 18.8926L22.4059 21.7086L10.9943 30.7432L9.7716 28.0446L3.54179 33.6179Z" fill="white"/>
<path d="M13.6738 17.485L20.3694 21.4157V29.277H20.4859L23.921 27.2237V19.3624L17.2254 15.373L13.6738 17.485Z" fill="white"/>
<path d="M19.03 43.8263L0.457031 33.0316V11.3836L19.03 0.530273L37.5448 11.3249V32.9729L19.03 43.8263ZM2.9606 31.5649L19.03 40.8929L35.0994 31.5063V12.8503L19.03 3.46361L2.9606 12.8503V31.5649Z" fill="white"/>
</svg>
