<svg width="26" height="36" viewBox="0 0 26 36" fill="none" xmlns="http://www.w3.org/2000/svg">
<path d="M25.6922 17.1984L14.8928 5.1991C14.6624 4.94471 14.3408 4.80072 14 4.80072H6.80044C6.32766 4.80072 5.89808 5.07911 5.7037 5.51108C5.51171 5.94546 5.5909 6.45183 5.90768 6.80221L15.9847 18L5.90768 29.1954C5.5909 29.5482 5.50931 30.0546 5.7037 30.4865C5.89808 30.9209 6.32766 31.1993 6.80044 31.1993H14C14.3408 31.1993 14.6624 31.0529 14.8928 30.8033L25.6922 18.804C26.1026 18.348 26.1026 17.652 25.6922 17.1984Z" fill="#03FD05"/>
<path d="M10.0931 17.1984L-0.706354 5.1991C-0.936742 4.94471 -1.25832 4.80072 -1.59911 4.80072H-8.79872C-9.27149 4.80072 -9.70107 5.07911 -9.89546 5.51108C-10.0874 5.94546 -10.0083 6.45183 -9.69147 6.80221L0.385587 18L-9.69147 29.1954C-10.0083 29.5482 -10.0898 30.0546 -9.89546 30.4865C-9.70107 30.9209 -9.27149 31.1993 -8.79872 31.1993H-1.59911C-1.25832 31.1993 -0.936742 31.0529 -0.706354 30.8033L10.0931 18.804C10.5034 18.348 10.5034 17.652 10.0931 17.1984Z" fill="#03FD05"/>
</svg>
