<svg width="25" height="36" viewBox="0 0 25 36" fill="none" xmlns="http://www.w3.org/2000/svg">
<g clip-path="url(#clip0_0_425)">
<path d="M0.307756 17.1984L11.1072 5.1991C11.3376 4.94471 11.6591 4.80072 11.9999 4.80072H19.1995C19.6723 4.80072 20.1019 5.07911 20.2963 5.51108C20.4883 5.94546 20.4091 6.45183 20.0923 6.80221L10.0152 18L20.0923 29.1954C20.4091 29.5482 20.4907 30.0546 20.2963 30.4865C20.1019 30.9209 19.6723 31.1993 19.1995 31.1993H11.9999C11.6591 31.1993 11.3376 31.0529 11.1072 30.8033L0.307756 18.804C-0.102621 18.348 -0.102621 17.652 0.307756 17.1984Z" fill="#03FD05"/>
<path d="M15.9069 17.1984L26.7064 5.1991C26.9367 4.94471 27.2583 4.80072 27.5991 4.80072H34.7987C35.2715 4.80072 35.7011 5.07911 35.8955 5.51108C36.0874 5.94546 36.0083 6.45183 35.6915 6.80221L25.6144 18L35.6915 29.1954C36.0083 29.5482 36.0898 30.0546 35.8955 30.4865C35.7011 30.9209 35.2715 31.1993 34.7987 31.1993H27.5991C27.2583 31.1993 26.9367 31.0529 26.7064 30.8033L15.9069 18.804C15.4966 18.348 15.4966 17.652 15.9069 17.1984Z" fill="#03FD05"/>
</g>
<defs>
<clipPath id="clip0_0_425">
<rect width="36" height="36" fill="white" transform="matrix(-1 0 0 1 36 0)"/>
</clipPath>
</defs>
</svg>
