<svg width="225" height="225" viewBox="0 0 225 225" fill="none" xmlns="http://www.w3.org/2000/svg">
<path d="M153.014 41L160.546 63.4825L183.028 71.0141L178.309 94.2503L194.014 112.014L178.309 129.778L183.028 153.014L160.546 160.546L153.014 183.028L129.778 178.309L112.014 194.014L94.2503 178.309L71.0141 183.028L63.4825 160.546L41 153.014L45.7187 129.778L30.0141 112.014L45.7187 94.2503L41 71.0141L63.4825 63.4825L71.0141 41L94.2503 45.7187L112.014 30.0141L129.778 45.7187L153.014 41Z" fill="#FFA600"/>
<path d="M99.3532 80.9652L100.665 78.6928L103.506 80.3328L108.088 72.397L109.384 73.1452L104.257 73.1681L105.754 70.5761L110.219 70.5502L112.19 71.688L106.275 81.9318L108.938 83.4693L107.626 85.7417L99.3532 80.9652ZM113.419 89.3463C111.915 88.4784 111.08 87.2466 110.913 85.6507C110.764 84.0498 111.284 82.2196 112.473 80.1602C113.682 78.0653 115.004 76.7057 116.437 76.0815C117.89 75.4523 119.367 75.5716 120.87 76.4395C122.385 77.3141 123.227 78.5341 123.397 80.0995C123.573 81.6531 123.06 83.4714 121.857 85.5545C120.661 87.6257 119.333 88.9971 117.872 89.6687C116.418 90.3284 114.934 90.2209 113.419 89.3463ZM114.71 87.1093C115.397 87.5057 116.1 87.4622 116.821 86.9789C117.561 86.4906 118.358 85.5067 119.212 84.0272C120.066 82.5478 120.509 81.3835 120.542 80.5343C120.586 79.692 120.265 79.0727 119.579 78.6764C118.892 78.2801 118.19 78.3083 117.471 78.7611C116.763 79.2207 115.986 80.1843 115.139 81.652C114.278 83.1433 113.821 84.3312 113.768 85.2159C113.721 86.0887 114.035 86.7198 114.71 87.1093ZM124.064 95.4923C122.561 94.6244 121.725 93.3926 121.558 91.7967C121.409 90.1958 121.929 88.3656 123.118 86.3062C124.328 84.2113 125.649 82.8517 127.083 82.2275C128.535 81.5983 130.012 81.7176 131.516 82.5855C133.03 83.4601 133.873 84.6801 134.042 86.2455C134.218 87.7991 133.705 89.6174 132.502 91.7005C131.306 93.7717 129.978 95.1431 128.517 95.8147C127.063 96.4744 125.579 96.3669 124.064 95.4923ZM125.355 93.2553C126.042 93.6517 126.745 93.6082 127.466 93.1249C128.206 92.6366 129.003 91.6527 129.857 90.1732C130.711 88.6938 131.154 87.5295 131.187 86.6803C131.232 85.838 130.91 85.2187 130.224 84.8224C129.538 84.4261 128.835 84.4543 128.116 84.9071C127.408 85.3667 126.631 86.3303 125.784 87.798C124.923 89.2893 124.466 90.4772 124.413 91.3619C124.366 92.2347 124.681 92.8658 125.355 93.2553ZM135.461 101.812L133.188 100.5L147.765 92.2272L150.037 93.5392L135.461 101.812ZM136.323 95.5632C135.293 94.9687 134.686 94.1608 134.503 93.1395C134.326 92.1064 134.576 91.0039 135.252 89.8322C135.936 88.6486 136.762 87.887 137.731 87.5472C138.72 87.2023 139.723 87.3238 140.74 87.9114C141.77 88.5059 142.373 89.3198 142.55 90.3529C142.734 91.3742 142.491 92.4648 141.821 93.6247C141.145 94.7964 140.315 95.564 139.332 95.9275C138.355 96.2791 137.352 96.1577 136.323 95.5632ZM137.276 93.9121C137.631 94.1171 138.002 94.1027 138.39 93.8688C138.789 93.6417 139.211 93.1435 139.655 92.3742C140.106 91.593 140.323 90.9846 140.307 90.5489C140.302 90.12 140.122 89.803 139.767 89.598C139.4 89.3862 139.029 89.3854 138.655 89.5956C138.288 89.794 137.876 90.2897 137.418 91.0827C136.96 91.8757 136.73 92.4926 136.728 92.9333C136.727 93.374 136.909 93.7003 137.276 93.9121ZM142.485 106.128C141.455 105.533 140.852 104.719 140.675 103.686C140.498 102.653 140.748 101.551 141.425 100.379C142.108 99.1954 142.935 98.4337 143.904 98.0939C144.885 97.761 145.885 97.8883 146.903 98.476C147.944 99.0773 148.551 99.8852 148.723 100.9C148.906 101.921 148.663 103.012 147.994 104.171C147.317 105.343 146.487 106.111 145.504 106.474C144.533 106.845 143.527 106.729 142.485 106.128ZM143.459 104.441C143.826 104.653 144.199 104.648 144.58 104.426C144.98 104.199 145.401 103.701 145.845 102.931C146.296 102.15 146.514 101.542 146.497 101.106C146.499 100.665 146.316 100.339 145.949 100.127C145.594 99.9221 145.224 99.9213 144.838 100.125C144.464 100.335 144.049 100.837 143.591 101.629C143.133 102.422 142.903 103.039 142.901 103.48C142.918 103.916 143.104 104.236 143.459 104.441ZM70.6396 93.5153C69.6809 92.9618 68.9558 92.2907 68.4644 91.502C67.9916 90.7082 67.7615 89.8494 67.774 88.9256C67.7985 88.0087 68.0908 87.0649 68.6512 86.0944C69.2047 85.1357 69.8724 84.4165 70.6543 83.9369C71.448 83.4641 72.3034 83.2399 73.2204 83.2643C74.1492 83.2956 75.0929 83.588 76.0516 84.1415C77.0103 84.695 77.7354 85.3661 78.2269 86.1548C78.7183 86.9436 78.9519 87.7964 78.9274 88.7134C78.9148 89.6372 78.6318 90.5785 78.0783 91.5371C77.518 92.5077 76.8409 93.2293 76.0472 93.7021C75.2653 94.1818 74.4065 94.4119 73.4709 94.3925C72.542 94.3612 71.5983 94.0688 70.6396 93.5153ZM71.8081 91.4914C72.4236 91.8468 73.0352 91.908 73.6431 91.675C74.2629 91.449 74.8358 90.8802 75.362 89.9689C75.8882 89.0575 76.0908 88.2829 75.9699 87.645C75.8608 87.0139 75.4986 86.5207 74.8831 86.1654C74.2677 85.81 73.6535 85.7395 73.0406 85.9537C72.4395 86.1748 71.8759 86.741 71.3497 87.6524C70.8235 88.5637 70.6116 89.3409 70.7138 89.9838C70.8279 90.6335 71.1927 91.1361 71.8081 91.4914ZM77.1883 97.0358L81.0115 90.4138C81.237 90.0232 81.4541 89.6199 81.6628 89.2038C81.8833 88.7945 82.0826 88.3809 82.2608 87.963L84.835 89.4493L83.6198 92.2511L83.2115 92.0153C83.6989 91.4445 84.1923 91.0272 84.6919 90.7632C85.2033 90.5062 85.7123 90.3898 86.2191 90.4141C86.7376 90.4452 87.2514 90.6077 87.7603 90.9015C87.9852 91.0313 88.1559 91.1457 88.2724 91.2445C88.3958 91.3315 88.5089 91.4363 88.6118 91.5588L87.2308 93.9097C87.0437 93.6597 86.8683 93.4716 86.7044 93.3455C86.5592 93.2143 86.3564 93.0735 86.096 92.9232C85.5989 92.6362 85.13 92.4917 84.6893 92.4898C84.2604 92.4946 83.8572 92.6327 83.4796 92.9039C83.1139 93.182 82.7807 93.5814 82.4801 94.1022L79.8868 98.5938L77.1883 97.0358ZM82.627 105.549L83.2152 103.096C83.8329 103.31 84.3722 103.456 84.8329 103.533C85.3055 103.616 85.7344 103.611 86.1196 103.518C86.498 103.437 86.8701 103.257 87.2358 102.979L88.2843 102.188L87.6188 103.176L88.9611 91.8314L91.7839 93.4612L90.5964 101.463L90.046 101.145L96.4175 96.1364L99.0806 97.6739L89.6133 104.683C88.9279 105.187 88.2871 105.558 87.6911 105.798C87.1 106.057 86.534 106.203 85.9931 106.238C85.4522 106.273 84.904 106.225 84.3486 106.093C83.805 105.969 83.2312 105.788 82.627 105.549ZM96.5781 113.533C95.7141 113.034 94.996 112.501 94.4239 111.934C93.8449 111.379 93.3882 110.776 93.0538 110.125L94.6756 108.505C94.884 108.909 95.1341 109.283 95.4258 109.625C95.7226 109.985 96.0491 110.308 96.4055 110.593C96.767 110.896 97.143 111.161 97.5335 111.386C98.3265 111.844 99.0276 111.996 99.6369 111.843C100.246 111.69 100.752 111.264 101.156 110.566L102.232 108.701L102.409 108.804C101.892 109.263 101.25 109.5 100.484 109.515C99.7175 109.53 98.9793 109.333 98.2692 108.923C97.4644 108.458 96.866 107.868 96.4743 107.153C96.0943 106.444 95.9334 105.657 95.9915 104.791C96.0496 103.925 96.3417 103.036 96.8679 102.125C97.3941 101.214 98.0176 100.516 98.7385 100.033C99.4594 99.5497 100.218 99.3013 101.015 99.2879C101.83 99.2695 102.641 99.4926 103.445 99.9573C104.167 100.374 104.702 100.911 105.048 101.569C105.413 102.221 105.529 102.881 105.398 103.546L105.297 103.393L106.397 101.898L108.989 103.394C108.716 103.758 108.451 104.134 108.195 104.522C107.946 104.899 107.712 105.277 107.494 105.656L103.957 111.781C103.117 113.237 102.066 114.113 100.805 114.411C99.5376 114.721 98.1285 114.428 96.5781 113.533ZM100.237 107.36C100.864 107.722 101.484 107.796 102.097 107.582C102.71 107.368 103.245 106.864 103.703 106.071C104.161 105.278 104.326 104.569 104.198 103.943C104.077 103.305 103.703 102.805 103.076 102.442C102.425 102.067 101.787 101.982 101.162 102.19C100.556 102.392 100.024 102.89 99.5664 103.683C99.1086 104.476 98.9401 105.191 99.061 105.829C99.1938 106.474 99.5856 106.984 100.237 107.36ZM105.83 113.572L111.027 104.571L113.708 106.119L108.511 115.12L105.83 113.572ZM111.771 103.036L113.216 100.533L116.092 102.193L114.647 104.697L111.771 103.036ZM110.702 116.385L114.546 109.727C114.764 109.349 114.975 108.957 115.176 108.553C115.385 108.137 115.579 107.72 115.757 107.302L118.331 108.788L117.563 110.57L117.35 110.447C117.987 110.026 118.67 109.813 119.399 109.807C120.128 109.802 120.854 110.008 121.576 110.425C122.629 111.033 123.239 111.795 123.404 112.711C123.588 113.622 123.311 114.717 122.573 115.995L119.437 121.428L116.756 119.88L119.821 114.572C120.196 113.921 120.345 113.391 120.265 112.982C120.186 112.573 119.909 112.232 119.436 111.959C118.844 111.617 118.261 111.533 117.687 111.707C117.12 111.869 116.656 112.263 116.294 112.891L113.383 117.933L110.702 116.385ZM124.975 124.886C124.193 124.435 123.616 123.849 123.243 123.128C122.87 122.408 122.719 121.603 122.791 120.713C122.863 119.824 123.182 118.888 123.75 117.905C124.31 116.935 124.957 116.196 125.692 115.689C126.426 115.182 127.196 114.916 127.999 114.891C128.81 114.854 129.605 115.061 130.387 115.512C131.109 115.929 131.651 116.479 132.014 117.162C132.396 117.84 132.505 118.526 132.341 119.22L132.145 119.107L133.373 117.473L135.947 118.959C135.686 119.329 135.422 119.705 135.154 120.087C134.905 120.464 134.671 120.842 134.452 121.221L130.609 127.878L127.946 126.341L128.902 124.644L129.115 124.767C128.597 125.226 127.955 125.463 127.189 125.478C126.423 125.493 125.685 125.296 124.975 124.886ZM126.96 123.333C127.575 123.689 128.199 123.757 128.83 123.537C129.462 123.318 130.041 122.753 130.567 121.841C131.093 120.93 131.29 120.152 131.157 119.507C131.024 118.863 130.65 118.362 130.035 118.007C129.419 117.652 128.799 117.578 128.174 117.785C127.55 117.993 126.974 118.552 126.448 119.463C125.922 120.375 125.716 121.155 125.83 121.805C125.956 122.462 126.332 122.971 126.96 123.333ZM132.807 129.147L140.351 116.081L143.032 117.629L135.488 130.695L132.807 129.147ZM137.679 131.96L141.523 125.303C141.741 124.924 141.952 124.532 142.153 124.128C142.362 123.712 142.556 123.295 142.734 122.877L145.308 124.363L144.54 126.145L144.327 126.022C144.964 125.601 145.648 125.388 146.376 125.383C147.105 125.377 147.831 125.583 148.553 126C149.606 126.608 150.216 127.37 150.381 128.286C150.565 129.198 150.288 130.292 149.55 131.571L146.414 137.003L143.733 135.455L146.798 130.147C147.174 129.496 147.322 128.966 147.242 128.557C147.163 128.148 146.886 127.807 146.413 127.534C145.821 127.192 145.238 127.108 144.664 127.282C144.097 127.444 143.633 127.839 143.271 128.466L140.36 133.508L137.679 131.96ZM151.952 140.461C151.17 140.01 150.593 139.424 150.22 138.704C149.847 137.983 149.696 137.178 149.768 136.289C149.84 135.399 150.159 134.463 150.727 133.481C151.287 132.51 151.934 131.771 152.669 131.264C153.403 130.757 154.173 130.491 154.976 130.466C155.787 130.429 156.582 130.636 157.364 131.087C158.086 131.504 158.628 132.054 158.991 132.737C159.373 133.415 159.482 134.101 159.318 134.795L159.122 134.683L160.35 133.048L162.924 134.534C162.663 134.904 162.399 135.28 162.131 135.662C161.882 136.039 161.648 136.417 161.429 136.796L157.586 143.453L154.923 141.916L155.879 140.219L156.092 140.342C155.574 140.801 154.932 141.038 154.166 141.053C153.4 141.068 152.662 140.871 151.952 140.461ZM153.937 138.908C154.552 139.264 155.176 139.332 155.807 139.113C156.439 138.893 157.018 138.328 157.544 137.417C158.07 136.505 158.267 135.727 158.134 135.082C158.001 134.438 157.627 133.938 157.012 133.582C156.396 133.227 155.776 133.153 155.151 133.36C154.527 133.568 153.951 134.127 153.425 135.039C152.899 135.95 152.693 136.731 152.807 137.38C152.933 138.037 153.309 138.546 153.937 138.908Z" fill="white"/>
<path d="M50.1478 114.237L54.0838 107.419C54.282 107.076 54.4717 106.72 54.653 106.351C54.8344 105.983 55.0039 105.607 55.1615 105.225L56.7238 106.127L55.7944 108.147L55.5813 108.024C56.243 107.506 56.9605 107.234 57.7336 107.207C58.5067 107.18 59.272 107.385 60.0295 107.822C61.0828 108.43 61.7084 109.178 61.9062 110.066C62.1108 110.941 61.8646 111.983 61.1676 113.19L57.9593 118.747L56.3438 117.814L59.5008 112.346C59.9723 111.529 60.1507 110.851 60.0362 110.312C59.9284 109.76 59.5373 109.29 58.8626 108.9C58.0578 108.436 57.2786 108.309 56.525 108.521C55.7832 108.74 55.1732 109.263 54.6949 110.092L51.7634 115.17L50.1478 114.237ZM60.6023 120.273L65.758 111.343L67.3736 112.275L62.2178 121.205L60.6023 120.273ZM66.7435 109.308L67.748 107.568L69.6654 108.675L68.6609 110.415L66.7435 109.308ZM68.6618 125.139C67.7741 124.626 67.1107 123.999 66.6716 123.256C66.2393 122.501 66.0413 121.669 66.0775 120.759C66.1325 119.844 66.4401 118.901 67.0004 117.93C67.5539 116.972 68.2089 116.261 68.9653 115.798C69.7285 115.324 70.5381 115.097 71.3941 115.117C72.2569 115.126 73.1262 115.384 74.002 115.889C74.582 116.224 75.0861 116.649 75.5144 117.165C75.9495 117.669 76.2327 118.203 76.3641 118.768L75.1578 119.586C75.0059 119.057 74.7672 118.596 74.4418 118.203C74.1232 117.798 73.7627 117.479 73.3603 117.247C72.4845 116.741 71.634 116.629 70.8089 116.91C69.9906 117.179 69.274 117.846 68.659 118.912C68.0372 119.989 67.8074 120.961 67.9697 121.828C68.1319 122.695 68.651 123.381 69.5268 123.887C69.9174 124.112 70.3642 124.267 70.8673 124.353C71.3704 124.438 71.8951 124.418 72.4415 124.291L72.3461 125.727C71.7724 125.901 71.1493 125.928 70.4769 125.808C69.8231 125.683 69.2181 125.46 68.6618 125.139ZM73.7729 114.81L77.672 112.28L79.3586 113.253L74.9091 115.466L73.7729 114.81ZM77.9458 130.286L78.571 129.203L88.5495 125.614L88.3137 126.022L82.384 122.599L83.1015 121.356L90.5225 125.64L89.8973 126.723L79.8628 130.328L80.1013 129.873L86.2795 133.44L85.562 134.683L77.9458 130.286ZM92.5073 138.693L99.7335 126.177L101.385 127.13L94.1584 139.646L92.5073 138.693ZM96.5315 141.016L97.1568 139.933L107.135 136.344L106.899 136.753L100.97 133.329L101.687 132.086L109.108 136.371L108.483 137.454L98.4485 141.058L98.687 140.604L104.865 144.171L104.148 145.414L96.5315 141.016ZM106.217 146.608L110.112 139.862C110.317 139.507 110.513 139.139 110.701 138.758C110.908 138.373 111.09 137.989 111.248 137.606L112.81 138.508L111.714 140.858L111.438 140.722C111.87 140.246 112.331 139.912 112.82 139.721C113.328 139.525 113.831 139.46 114.329 139.527C114.846 139.589 115.323 139.746 115.761 139.999C115.95 140.108 116.107 140.206 116.23 140.293C116.353 140.38 116.467 140.485 116.569 140.608L115.704 142.025C115.567 141.852 115.425 141.714 115.278 141.614C115.15 141.508 114.979 141.394 114.766 141.271C114.245 140.97 113.727 140.829 113.212 140.847C112.708 140.872 112.243 141.021 111.816 141.296C111.402 141.577 111.064 141.943 110.805 142.392L107.832 147.541L106.217 146.608ZM116.035 152.49C115.254 152.039 114.673 151.459 114.293 150.75C113.913 150.042 113.759 149.243 113.831 148.353C113.903 147.463 114.215 146.539 114.769 145.581C115.322 144.622 115.963 143.895 116.691 143.4C117.425 142.893 118.194 142.627 118.998 142.602C119.802 142.576 120.594 142.789 121.375 143.24C122.168 143.698 122.739 144.296 123.086 145.033C123.452 145.765 123.532 146.529 123.325 147.325L123.112 147.202L124.496 145.255L126.059 146.157C125.818 146.492 125.578 146.826 125.337 147.161C125.108 147.502 124.895 147.845 124.697 148.188L120.761 155.005L119.145 154.072L120.324 152.031L120.519 152.144C119.94 152.709 119.239 153.022 118.415 153.083C117.609 153.138 116.816 152.941 116.035 152.49ZM117.146 151.427C117.951 151.891 118.76 151.98 119.573 151.692C120.386 151.404 121.111 150.71 121.746 149.609C122.382 148.508 122.617 147.54 122.453 146.703C122.289 145.867 121.805 145.216 121 144.751C120.195 144.287 119.383 144.189 118.565 144.458C117.759 144.734 117.038 145.423 116.402 146.524C115.767 147.624 115.528 148.599 115.685 149.447C115.842 150.295 116.329 150.955 117.146 151.427ZM127.441 159.075C126.021 158.255 125.132 157.198 124.775 155.903C124.43 154.614 124.671 153.254 125.498 151.822C126.044 150.875 126.693 150.161 127.445 149.68C128.215 149.193 129.029 148.945 129.887 148.935C130.751 148.914 131.61 149.149 132.462 149.641C133.278 150.112 133.868 150.69 134.231 151.373C134.601 152.044 134.75 152.785 134.677 153.595C134.604 154.405 134.314 155.248 133.809 156.123L133.501 156.656L126.666 152.71L127.219 151.751L132.954 155.062L132.519 155.118C133.052 154.195 133.258 153.359 133.138 152.611C133.029 151.87 132.578 151.271 131.785 150.813C130.921 150.314 130.078 150.23 129.256 150.56C128.441 150.878 127.736 151.552 127.142 152.582L127.05 152.742C126.421 153.831 126.212 154.807 126.424 155.671C126.647 156.542 127.238 157.254 128.197 157.807C128.729 158.115 129.271 158.325 129.821 158.437C130.372 158.55 130.963 158.552 131.594 158.443L131.48 159.869C130.866 160.003 130.199 159.997 129.479 159.85C128.771 159.709 128.092 159.451 127.441 159.075ZM133.142 162.154L140.686 149.087L142.302 150.02L134.758 163.086L133.142 162.154ZM140.775 166.774C139.994 166.323 139.414 165.743 139.034 165.034C138.654 164.326 138.5 163.527 138.572 162.637C138.643 161.747 138.956 160.823 139.509 159.865C140.063 158.906 140.704 158.179 141.431 157.684C142.166 157.177 142.935 156.911 143.739 156.885C144.542 156.86 145.335 157.073 146.116 157.524C146.909 157.982 147.479 158.58 147.827 159.317C148.193 160.049 148.273 160.813 148.066 161.609L147.853 161.486L149.237 159.539L150.799 160.441C150.559 160.776 150.318 161.11 150.078 161.445C149.849 161.786 149.636 162.129 149.437 162.472L145.501 169.289L143.886 168.356L145.065 166.315L145.26 166.428C144.681 166.993 143.98 167.306 143.155 167.367C142.35 167.422 141.557 167.225 140.775 166.774ZM141.886 165.711C142.691 166.175 143.5 166.264 144.313 165.976C145.127 165.688 145.851 164.994 146.487 163.893C147.122 162.792 147.358 161.823 147.194 160.987C147.03 160.151 146.545 159.5 145.74 159.035C144.935 158.571 144.124 158.473 143.306 158.742C142.499 159.018 141.778 159.707 141.143 160.808C140.507 161.908 140.268 162.883 140.425 163.731C140.583 164.579 141.07 165.239 141.886 165.711Z" fill="white"/>
</svg>
