<svg width="48" height="29" viewBox="0 0 48 29" fill="none" xmlns="http://www.w3.org/2000/svg">
<g clip-path="url(#clip0_106_73)">
<path fill-rule="evenodd" clip-rule="evenodd" d="M14.306 0.553589C6.40451 0.553589 0 6.92146 0 14.7768C0 22.6321 6.40451 29 14.306 29C17.9568 29 21.2884 27.6396 23.8162 25.4021C24.0172 25.2242 24.2125 25.0405 24.4028 24.8518C24.4662 24.7889 24.5292 24.7257 24.5915 24.6616H23.0408C23.1031 24.7257 23.1662 24.7889 23.2296 24.8518C23.1662 24.789 23.103 24.7256 23.0408 24.6616C22.7679 24.381 22.5074 24.0897 22.2582 23.7875C22.2033 23.7209 22.148 23.6534 22.0942 23.5857C22.148 23.6536 22.2031 23.7206 22.2582 23.7875H25.3727C25.5931 23.5199 25.8049 23.2447 26.0057 22.9614H21.6267C21.727 23.103 21.8292 23.2433 21.9345 23.381C21.829 23.2432 21.7271 23.1031 21.6267 22.9614C21.3813 22.6154 21.1511 22.2576 20.937 21.8899C20.6595 21.4132 20.4091 20.9199 20.1878 20.4103C20.127 20.2704 20.0684 20.13 20.0121 19.9878C19.9561 19.8465 19.9025 19.703 19.8509 19.5595C19.7478 19.2723 19.6526 18.9808 19.5678 18.6854H28.066C28.1462 18.4059 28.2178 18.1223 28.2809 17.836H19.3529C19.4002 18.0507 19.4528 18.2638 19.5097 18.4749C19.4527 18.2637 19.4003 18.0509 19.3529 17.836C19.2598 17.4139 19.1852 16.9849 19.1308 16.5496C19.1252 16.5048 19.12 16.4595 19.1148 16.4146C19.1201 16.4599 19.125 16.5045 19.1308 16.5496C19.1483 16.6875 19.1676 16.8251 19.1888 16.962H28.445C28.4874 16.6883 28.523 16.413 28.5495 16.1344H19.0843C19.0569 15.8462 19.039 15.5547 19.0291 15.2617C19.0264 15.1811 19.0247 15.1002 19.0233 15.0193C19.022 14.9385 19.0204 14.8579 19.0204 14.7768C19.0204 14.858 19.0218 14.9385 19.0233 15.0193C19.0248 15.1001 19.0264 15.1812 19.0291 15.2617H28.6047C28.6071 15.1899 28.609 15.1175 28.6105 15.0454C28.6106 15.0367 28.6104 15.028 28.6105 15.0193C28.6105 15.0164 28.6104 15.0135 28.6105 15.0106C28.6119 14.9326 28.6134 14.8551 28.6134 14.7768C28.6134 14.6446 28.6113 14.5132 28.6076 14.3819C28.5939 13.8968 28.5555 13.4174 28.4943 12.9459H19.1395C19.1006 13.2455 19.071 13.5481 19.0509 13.8534C19.0459 13.9297 19.0416 14.0061 19.0378 14.0828C19.0347 14.1464 19.0314 14.2106 19.0291 14.2744C19.0314 14.2104 19.0348 14.1466 19.0378 14.0828C19.0416 14.0061 19.046 13.9297 19.0509 13.8534C19.1091 12.9509 19.2523 12.0713 19.472 11.2224C19.5484 10.9271 19.6343 10.636 19.729 10.3484C19.7513 10.2804 19.7738 10.2126 19.7972 10.1451C19.8204 10.0782 19.8442 10.0112 19.8684 9.94474C19.8442 10.0117 19.8204 10.0777 19.7972 10.1451C19.774 10.2125 19.7513 10.2806 19.729 10.3484H27.9048C27.8156 10.0773 27.7194 9.80903 27.6145 9.54546H20.0194C19.9931 9.61135 19.9676 9.67792 19.9424 9.74437C19.9677 9.67794 19.9931 9.61141 20.0194 9.54546C20.1375 9.24865 20.2654 8.95802 20.4027 8.67139C20.4401 8.59328 20.4786 8.51494 20.5174 8.43763C20.5565 8.35959 20.5959 8.28253 20.6364 8.20532C20.5961 8.28217 20.5563 8.35997 20.5174 8.43763C20.4785 8.51529 20.4402 8.59295 20.4027 8.67139H27.2311C27.1802 8.56505 27.1278 8.45977 27.0743 8.35487C27.049 8.30519 27.0247 8.25611 26.9988 8.20677C26.9922 8.19409 26.9852 8.18167 26.9785 8.16902C26.9708 8.15451 26.963 8.13998 26.9553 8.12546C26.917 8.05349 26.8787 7.98179 26.8391 7.91057C26.8092 7.85658 26.7783 7.80295 26.7477 7.74941H20.8862C21.057 7.4511 21.2392 7.15966 21.4306 6.87534C21.4756 6.80852 21.521 6.74244 21.5671 6.67642C21.6129 6.6109 21.6597 6.54512 21.7065 6.48041C21.8007 6.3503 21.8956 6.22242 21.994 6.09565C22.2272 5.79522 22.4725 5.50371 22.7287 5.22303H24.9037C24.8179 5.12903 24.7306 5.03596 24.6423 4.94426C24.3776 4.66916 24.1023 4.40477 23.8162 4.1515C21.2884 1.91401 17.9568 0.553589 14.306 0.553589ZM21.994 6.09565C21.8958 6.22221 21.8004 6.35041 21.7065 6.48041C21.6596 6.54541 21.613 6.61062 21.5671 6.67642C21.5213 6.74222 21.4755 6.80878 21.4306 6.87534H26.2017C26.0224 6.60913 25.8349 6.34876 25.6384 6.09565H21.994ZM19.472 11.2224C19.3995 11.5023 19.3359 11.7857 19.2803 12.0718H28.3535C28.298 11.7857 28.2343 11.5022 28.1618 11.2224H19.472ZM19.8509 19.5595C19.9026 19.7035 19.956 19.846 20.0121 19.9878C20.0682 20.1296 20.1272 20.2707 20.1878 20.4103H27.446C27.5673 20.1311 27.6794 19.8476 27.7829 19.5595H19.8509ZM20.937 21.8899C20.9755 21.9561 21.015 22.0217 21.0546 22.0873H26.5792C26.7377 21.8249 26.8878 21.5574 27.0293 21.2844H20.6045C20.7106 21.4892 20.8213 21.6911 20.937 21.8899ZM25.1128 5.45679C25.1473 5.4963 25.1818 5.53596 25.2159 5.57585C25.1818 5.536 25.1472 5.49626 25.1128 5.45679ZM26.3338 7.0728C26.3615 7.11532 26.3894 7.15775 26.4166 7.20057C26.3894 7.15763 26.3615 7.11544 26.3338 7.0728ZM25.2159 23.9777C25.1818 24.0176 25.1473 24.0573 25.1128 24.0968C25.1472 24.0573 25.1818 24.0176 25.2159 23.9777ZM24.9908 24.2347C24.9498 24.2804 24.9089 24.3261 24.8674 24.3712C24.9089 24.3261 24.9499 24.2804 24.9908 24.2347Z" fill="#FF0018"/>
<path fill-rule="evenodd" clip-rule="evenodd" d="M33.3278 0.553589C29.677 0.553589 26.3454 1.91401 23.8176 4.1515C24.1988 4.48899 24.5606 4.84728 24.9036 5.22303H22.7286C22.4726 5.50361 22.2285 5.79534 21.9954 6.09565H25.6383C25.8349 6.34876 26.0223 6.60913 26.2017 6.87534H21.4306C21.2391 7.15969 21.057 7.45107 20.8861 7.74941H26.7476C26.9199 8.04997 27.0808 8.35763 27.2311 8.67139H20.4026C20.2656 8.95755 20.1373 9.24915 20.0193 9.54546H27.6144C27.7194 9.80903 27.8155 10.0773 27.9048 10.3484H19.7289C19.5446 10.9083 19.3942 11.4837 19.2803 12.0718C19.3358 11.7857 19.3995 11.5023 19.4719 11.2224H28.1618C28.2342 11.5022 28.2979 11.7857 28.3535 12.0718H19.2803C19.2102 12.4338 19.1538 12.7998 19.1119 13.171C19.1204 13.0957 19.1297 13.0208 19.1394 12.9459H28.4943C28.572 13.5451 28.6134 14.1564 28.6134 14.7768C28.6134 14.9392 28.6101 15.1007 28.6046 15.2617H19.0291C19.039 15.5553 19.0582 15.8456 19.0857 16.1344H28.5495C28.5229 16.413 28.4874 16.6883 28.4449 16.962H19.1888C19.2345 17.2567 19.2893 17.5475 19.3529 17.836H28.2809C28.2177 18.1223 28.1462 18.4059 28.066 18.6854H19.5678C19.6526 18.9811 19.7477 19.272 19.8509 19.5595H27.7828C27.6794 19.8476 27.5673 20.1311 27.446 20.4103H20.1877C20.4398 20.9905 20.7301 21.5502 21.0546 22.0873C20.8962 21.8249 20.746 21.5574 20.6045 21.2844H27.0293C26.8877 21.5574 26.7376 21.8249 26.5792 22.0873H21.0546C21.2348 22.3857 21.4255 22.6778 21.6266 22.9614H26.0057C25.8049 23.2447 25.5931 23.5199 25.3726 23.7875H22.2582C22.5071 24.0893 22.7682 24.3813 23.0408 24.6616H24.5915C24.3426 24.9178 24.0853 25.1651 23.8176 25.4021C26.3454 27.6396 29.677 29 33.3278 29C41.2293 29 47.6338 22.6321 47.6338 14.7768C47.6338 6.92146 41.2293 0.553589 33.3278 0.553589ZM21.6266 22.9614C21.6768 23.0321 21.7277 23.1022 21.7791 23.1719C21.7277 23.1021 21.6768 23.0322 21.6266 22.9614ZM20.1877 20.4103C20.0665 20.1311 19.9543 19.8476 19.8509 19.5595C19.9544 19.8476 20.0665 20.1311 20.1877 20.4103ZM19.0291 15.2617C19.0264 15.1812 19.0248 15.1001 19.0233 15.0193C19.0247 15.1 19.0264 15.1814 19.0291 15.2617ZM19.0233 15.0193C19.0218 14.9385 19.0204 14.858 19.0204 14.7768C19.0204 14.858 19.0219 14.9384 19.0233 15.0193ZM19.1119 13.171C19.0948 13.3217 19.0806 13.4732 19.0683 13.6254C19.0807 13.4734 19.0947 13.3215 19.1119 13.171ZM19.0683 13.6254C19.0636 13.6838 19.0592 13.7425 19.0552 13.8011C19.0593 13.7423 19.0635 13.684 19.0683 13.6254ZM19.7289 10.3484C19.7513 10.2806 19.774 10.2125 19.7972 10.1451C19.7738 10.2126 19.7513 10.2805 19.7289 10.3484ZM20.0193 9.54546C19.9979 9.59935 19.9777 9.65386 19.9569 9.70808C19.9776 9.65388 19.9979 9.59928 20.0193 9.54546ZM21.4306 6.87534C21.4754 6.80878 21.5212 6.74222 21.5671 6.67642C21.5211 6.7423 21.4755 6.80866 21.4306 6.87534ZM21.5671 6.67642C21.613 6.61062 21.6595 6.54541 21.7065 6.48041C21.6595 6.54533 21.613 6.61069 21.5671 6.67642ZM20.6364 8.20532C20.5998 8.27501 20.5644 8.34548 20.529 8.41585C20.5643 8.3456 20.5999 8.2749 20.6364 8.20532ZM19.9322 9.77196C19.9105 9.8294 19.8893 9.88695 19.8683 9.94474C19.8892 9.887 19.9106 9.82933 19.9322 9.77196ZM19.0378 14.0828C19.0343 14.1558 19.0301 14.2287 19.0276 14.302C19.0301 14.2289 19.0342 14.1556 19.0378 14.0828ZM19.1307 16.5496C19.1362 16.5937 19.1422 16.6378 19.1482 16.6817C19.1421 16.6377 19.1363 16.5938 19.1307 16.5496ZM19.3543 17.8433C19.3697 17.9127 19.3859 17.9819 19.4022 18.0509C19.386 17.9821 19.3696 17.9124 19.3543 17.8433ZM19.4545 18.2629C19.4717 18.3307 19.4886 18.3988 19.5068 18.4662C19.4886 18.3987 19.4717 18.3308 19.4545 18.2629ZM23.0582 24.679C23.1149 24.7371 23.1719 24.7947 23.2296 24.8518C23.172 24.7947 23.1149 24.7372 23.0582 24.679Z" fill="#FFAA18"/>
<path d="M28.6552 14.7768C28.6552 20.6682 26.2847 24.2589 23.9141 25.4442C21.5436 24.2589 18.5804 20.6682 18.5804 14.7768C18.5804 8.88534 21.5436 5.29464 23.9141 4.10938C26.2847 5.29464 28.6552 8.88534 28.6552 14.7768Z" fill="#FF6918"/>
<path d="M46.0599 22.9004C46.173 22.9004 46.2845 22.9294 46.3919 22.9885C46.5003 23.0456 46.5846 23.1297 46.6451 23.2385C46.7058 23.3467 46.7355 23.4593 46.7355 23.5772C46.7355 23.6936 46.7058 23.806 46.646 23.9134C46.5868 24.0209 46.5034 24.1052 46.396 24.1644C46.2887 24.2235 46.1763 24.2532 46.0597 24.2532C45.9421 24.2532 45.8297 24.2235 45.7223 24.1644C45.615 24.1047 45.5319 24.0209 45.4724 23.9134C45.412 23.806 45.3824 23.6936 45.3824 23.5772C45.3824 23.4593 45.4124 23.3467 45.4731 23.2385C45.534 23.1297 45.6186 23.0461 45.7265 22.9885C45.8354 22.9294 45.9468 22.9004 46.0599 22.9004ZM46.0599 23.0118C45.9652 23.0118 45.8727 23.0364 45.7822 23.0858C45.692 23.1339 45.6219 23.2036 45.5711 23.2947C45.5206 23.3847 45.4951 23.4789 45.4951 23.5767C45.4951 23.6745 45.5196 23.768 45.569 23.8572C45.6193 23.9462 45.6892 24.0161 45.7794 24.0664C45.8687 24.1156 45.9619 24.1404 46.0599 24.1404C46.1572 24.1404 46.2512 24.1156 46.3405 24.0664C46.4297 24.0161 46.4996 23.9462 46.5492 23.8572C46.599 23.7673 46.6234 23.6745 46.6234 23.5767C46.6234 23.4789 46.5981 23.3847 46.5476 23.2947C46.4973 23.2036 46.4271 23.1339 46.3364 23.0858C46.2467 23.0366 46.1549 23.0118 46.0599 23.0118ZM45.7636 23.9507V23.2227H46.0141C46.0994 23.2227 46.1617 23.2296 46.1995 23.2435C46.2377 23.2565 46.2677 23.2799 46.2911 23.3136C46.314 23.3472 46.3256 23.3824 46.3256 23.4201C46.3256 23.4733 46.3062 23.5198 46.268 23.559C46.2307 23.5982 46.1804 23.6209 46.1175 23.6251C46.1426 23.636 46.1634 23.649 46.1794 23.6636C46.2085 23.6924 46.2444 23.7406 46.2869 23.8079L46.3759 23.9505H46.2321L46.1681 23.836C46.1171 23.7455 46.0762 23.6893 46.0451 23.6664C46.0236 23.6497 45.9922 23.6414 45.9508 23.6414H45.8821V23.951L45.7636 23.9507ZM45.8812 23.541H46.0238C46.092 23.541 46.1381 23.5309 46.1626 23.5106C46.1874 23.4907 46.2004 23.4636 46.2004 23.4298C46.2004 23.4083 46.1945 23.389 46.1827 23.3727C46.1707 23.3552 46.1539 23.3427 46.1324 23.3339C46.1109 23.3257 46.0724 23.3214 46.0148 23.3214H45.8814V23.541" fill="#FFAA18"/>
<path d="M46.0599 17.0898C46.173 17.0898 46.2845 17.1188 46.3919 17.1779C46.5003 17.235 46.5846 17.3191 46.6451 17.4279C46.7058 17.5361 46.7355 17.6487 46.7355 17.7666C46.7355 17.883 46.7058 17.9954 46.646 18.1028C46.5868 18.2103 46.5034 18.2946 46.396 18.3538C46.2887 18.4129 46.1763 18.4426 46.0597 18.4426C45.9421 18.4426 45.8297 18.4129 45.7223 18.3538C45.615 18.2941 45.5319 18.2103 45.4724 18.1028C45.412 17.9954 45.3824 17.883 45.3824 17.7666C45.3824 17.6487 45.4124 17.5361 45.4731 17.4279C45.534 17.3191 45.6186 17.2355 45.7265 17.1779C45.8354 17.1188 45.9468 17.0898 46.0599 17.0898ZM46.0599 17.2012C45.9652 17.2012 45.8727 17.2258 45.7822 17.2752C45.692 17.3233 45.6219 17.393 45.5711 17.4841C45.5206 17.5741 45.4951 17.6683 45.4951 17.7661C45.4951 17.8638 45.5196 17.9574 45.569 18.0466C45.6193 18.1356 45.6892 18.2055 45.7794 18.2558C45.8687 18.305 45.9619 18.3297 46.0599 18.3297C46.1572 18.3297 46.2512 18.305 46.3405 18.2558C46.4297 18.2055 46.4996 18.1356 46.5492 18.0466C46.599 17.9566 46.6234 17.8638 46.6234 17.7661C46.6234 17.6683 46.5981 17.5741 46.5476 17.4841C46.4973 17.393 46.4271 17.3233 46.3364 17.2752C46.2467 17.226 46.1549 17.2012 46.0599 17.2012ZM45.7636 18.1401V17.4121H46.0141C46.0994 17.4121 46.1617 17.419 46.1995 17.4329C46.2377 17.4459 46.2677 17.4693 46.2911 17.503C46.314 17.5366 46.3256 17.5717 46.3256 17.6095C46.3256 17.6627 46.3062 17.7092 46.268 17.7484C46.2307 17.7876 46.1804 17.8102 46.1175 17.8145C46.1426 17.8254 46.1634 17.8383 46.1794 17.853C46.2085 17.8818 46.2444 17.93 46.2869 17.9973L46.3759 18.1399H46.2321L46.1681 18.0254C46.1171 17.9349 46.0762 17.8787 46.0451 17.8558C46.0236 17.8391 45.9922 17.8308 45.9508 17.8308H45.8821V18.1404L45.7636 18.1401ZM45.8812 17.7304H46.0238C46.092 17.7304 46.1381 17.7203 46.1626 17.7C46.1874 17.6801 46.2004 17.653 46.2004 17.6192C46.2004 17.5977 46.1945 17.5784 46.1827 17.5621C46.1707 17.5446 46.1539 17.5321 46.1324 17.5233C46.1109 17.5151 46.0724 17.5108 46.0148 17.5108H45.8814V17.7304" fill="white"/>
<path d="M19.3502 18.1716L19.5374 17.0856C19.4351 17.0856 19.2847 17.123 19.152 17.123C18.6313 17.123 18.5739 16.8866 18.6071 16.7117L19.0277 14.4959H19.8189L20.01 13.2947H19.2639L19.4158 12.5477H17.9201C17.8872 12.5758 17.0372 16.749 17.0372 17.2571C17.0372 18.0094 17.5317 18.3444 18.229 18.339C18.775 18.3351 19.2002 18.206 19.3502 18.1716Z" fill="white"/>
<path d="M19.824 16.1011C19.824 17.9066 21.2191 18.3356 22.4077 18.3356C23.5048 18.3356 23.9875 18.1261 23.9875 18.1261L24.251 16.8939C24.251 16.8939 23.4165 17.2079 22.6628 17.2079C21.0568 17.2079 21.338 16.1851 21.338 16.1851H24.3775C24.3775 16.1851 24.5738 15.3572 24.5738 15.0199C24.5738 14.1781 24.0833 13.1523 22.4411 13.1523C20.9372 13.1526 19.824 14.5368 19.824 16.1011ZM22.4468 14.2966C23.2909 14.2966 23.1352 15.1068 23.1352 15.1724H21.4747C21.4747 15.0887 21.6316 14.2966 22.4468 14.2966Z" fill="white"/>
<path d="M31.918 18.1711L32.1856 16.7782C32.1856 16.7782 31.4517 17.0926 30.948 17.0926C29.8871 17.0926 29.4616 16.4005 29.4616 15.6571C29.4616 14.1488 30.3744 13.3191 31.3907 13.3191C32.1528 13.3191 32.7644 13.6846 32.7644 13.6846L33.0086 12.3313C33.0086 12.3313 32.1016 12.0178 31.3241 12.0178C29.5974 12.0178 27.9177 13.2973 27.9177 15.7003C27.9177 17.2937 28.8247 18.3461 30.6095 18.3461C31.1142 18.3462 31.918 18.1711 31.918 18.1711Z" fill="white"/>
<path d="M11.124 13.1723C10.0984 13.1723 9.31224 13.4539 9.31224 13.4539L9.0952 14.5545C9.0952 14.5545 9.7441 14.3292 10.725 14.3292C11.2819 14.3292 11.6894 14.3827 11.6894 14.7694C11.6894 15.0042 11.6394 15.0909 11.6394 15.0909C11.6394 15.0909 11.2001 15.0595 10.9967 15.0595C9.7032 15.0595 8.34436 15.531 8.34436 16.9527C8.34436 18.0729 9.23582 18.33 9.78833 18.33C10.8436 18.33 11.2984 17.7451 11.3227 17.7433L11.2734 18.2315H12.5903L13.1779 14.713C13.1779 13.2204 11.6535 13.1723 11.124 13.1723ZM11.4444 16.0371C11.473 16.252 11.2867 17.2594 10.3862 17.2594C9.92166 17.2594 9.80085 16.9564 9.80085 16.7771C9.80085 16.4274 10.0233 16.0076 11.1193 16.0076C11.3742 16.0078 11.4015 16.0311 11.4444 16.0371Z" fill="white"/>
<path d="M14.5776 18.3042C14.9145 18.3042 16.8404 18.3773 16.8404 16.6798C16.8404 15.0927 15.0576 15.4062 15.0576 14.7687C15.0576 14.4512 15.3482 14.3513 15.8793 14.3513C16.0902 14.3513 16.9014 14.4086 16.9014 14.4086L17.0901 13.2805C17.0901 13.2806 16.565 13.1801 15.7102 13.1801C14.6037 13.1801 13.4807 13.5574 13.4807 14.8483C13.4807 16.311 15.3533 16.1642 15.3533 16.7804C15.3533 17.1917 14.8301 17.2251 14.427 17.2251C13.7292 17.2251 13.101 17.0206 13.0987 17.0304L12.8993 18.1471C12.9354 18.1566 13.3229 18.3042 14.5776 18.3042Z" fill="white"/>
<path d="M44.3069 12.1599L43.9843 13.8699C43.9843 13.8699 43.4213 13.2057 42.54 13.2057C41.1696 13.2057 40.0273 14.6171 40.0273 16.2388C40.0273 17.2856 40.6366 18.3114 41.8821 18.3114C42.778 18.3114 43.2747 17.7778 43.2747 17.7778L43.2089 18.2335H44.6636L45.8062 12.1579L44.3069 12.1599ZM43.6124 15.4941C43.6124 16.1689 43.2213 17.0703 42.4103 17.0703C41.8721 17.0703 41.6199 16.6844 41.6199 16.0786C41.6199 15.0881 42.1407 14.4345 42.7978 14.4345C43.3362 14.4344 43.6124 14.7503 43.6124 15.4941Z" fill="white"/>
<path d="M3.02569 18.2388L3.93617 13.6519L4.06982 18.2388H5.10032L7.0226 13.6519L6.17109 18.2388H7.70226L8.88147 12.1551H6.51369L5.03913 15.8878L4.96239 12.1551H2.77979L1.58362 18.2388H3.02569Z" fill="white"/>
<path d="M26.0696 18.2472C26.505 16.1324 26.5857 14.4152 27.6246 14.7295C27.8064 13.911 27.9819 13.5944 28.1804 13.248C28.1804 13.248 28.0873 13.2313 27.892 13.2313C27.2222 13.2313 26.726 14.013 26.726 14.013L26.8593 13.2951H25.4667L24.5337 18.2472H26.0696Z" fill="white"/>
<path d="M35.3691 13.1723C34.3435 13.1723 33.5573 13.4539 33.5573 13.4539L33.3404 14.5545C33.3404 14.5545 33.9893 14.3292 34.9702 14.3292C35.5272 14.3292 35.9343 14.3827 35.9343 14.7694C35.9343 15.0042 35.8847 15.0909 35.8847 15.0909C35.8847 15.0909 35.4454 15.0595 35.2418 15.0595C33.9484 15.0595 32.5896 15.531 32.5896 16.9527C32.5896 18.0729 33.4809 18.33 34.0334 18.33C35.0886 18.33 35.5435 17.7451 35.5676 17.7433L35.5186 18.2315C35.5186 18.2315 36.8351 18.2315 36.8356 18.2315L37.423 14.713C37.4231 13.2204 35.8986 13.1723 35.3691 13.1723ZM35.69 16.0371C35.7185 16.252 35.5321 17.2594 34.6313 17.2594C34.1667 17.2594 34.0463 16.9564 34.0463 16.7771C34.0463 16.4274 34.2687 16.0076 35.3645 16.0076C35.6194 16.0078 35.6465 16.0311 35.69 16.0371Z" fill="white"/>
<path d="M38.6266 18.2472C39.0621 16.1324 39.1428 14.4152 40.1814 14.7295C40.3635 13.911 40.5392 13.5944 40.7375 13.248C40.7375 13.248 40.6445 13.2313 40.4491 13.2313C39.7793 13.2313 39.2831 14.013 39.2831 14.013L39.4164 13.2951H38.0238L37.0908 18.2472H38.6266Z" fill="white"/>
</g>
<defs>
<clipPath id="clip0_106_73">
<rect width="47.6338" height="28.4464" fill="white" transform="translate(0 0.553589)"/>
</clipPath>
</defs>
</svg>
