<svg width="56" height="19" viewBox="0 0 56 19" fill="none" xmlns="http://www.w3.org/2000/svg">
<path d="M35.9006 0C31.9871 0 28.4897 2.05285 28.4897 5.84479C28.4897 10.1939 34.6923 10.4943 34.6923 12.6794C34.6923 13.5995 33.6506 14.423 31.8707 14.423C29.3454 14.423 27.458 13.2723 27.458 13.2723L26.6502 17.0994C26.6502 17.0994 28.8246 18.0714 31.7113 18.0714C35.9899 18.0714 39.3572 15.9181 39.3572 12.0608C39.3572 7.46496 33.1287 7.17353 33.1287 5.1458C33.1287 4.42504 33.9838 3.63561 35.7582 3.63561C37.7604 3.63561 39.3936 4.4725 39.3936 4.4725L40.1842 0.776588C40.1842 0.776588 38.4065 0 35.9 0H35.9006ZM0.0948977 0.279147L0 0.836884C0 0.836884 1.64636 1.14171 3.12942 1.75025C5.03896 2.44756 5.17468 2.854 5.49634 4.11463L9.00038 17.7834H13.6978L20.9343 0.279147H16.2479L11.5979 12.1803L9.70053 2.09193C9.52673 0.937377 8.64507 0.278589 7.56643 0.278589H0.0954494L0.0948977 0.279147ZM22.819 0.279147L19.1428 17.7834H23.6119L27.2748 0.279147H22.819ZM47.744 0.279147C46.6665 0.279147 46.0954 0.863123 45.6767 1.88313L39.1293 17.7834H43.8157L44.7222 15.1331H50.4315L50.9827 17.7834H55.1179L51.5107 0.279147H47.744ZM48.3537 5.00846L49.7429 11.5768H46.0215L48.3542 5.00846H48.3537Z" fill="#1434CB"/>
</svg>
