<svg width="74" height="74" viewBox="0 0 74 74" fill="none" xmlns="http://www.w3.org/2000/svg">
<g clip-path="url(#clip0_1027_435)">
<path d="M28.904 53.496L34.05 58.642V61.8781C21.6056 60.4183 11.95 49.8367 11.95 37C11.95 34.3267 12.3687 31.7514 13.144 29.3361L20.504 36.696C21.1093 37.3013 22.0907 37.3013 22.696 36.696L25.496 33.896C25.7867 33.6053 25.95 33.2111 25.95 32.8V31.55H30C32.4024 31.55 34.35 29.6024 34.35 27.2V24.4C34.35 23.7096 34.9096 23.15 35.6 23.15H38.4C42.3488 23.15 45.55 19.9488 45.55 16V13.447C55.1749 16.9417 62.05 26.1682 62.05 37C62.05 42.1211 60.5134 46.8829 57.8762 50.85H52.4C51.7096 50.85 51.15 50.2904 51.15 49.6C51.15 47.1976 49.2024 45.25 46.8 45.25C46.1096 45.25 45.55 44.6904 45.55 44V41.2C45.55 38.7976 43.6024 36.85 41.2 36.85H27.2C26.344 36.85 25.65 37.544 25.65 38.4V41.2C25.65 41.6111 25.8133 42.0053 26.104 42.296L28.45 44.642V52.4C28.45 52.8111 28.6133 53.2053 28.904 53.496ZM37.15 62.0496V58C37.15 57.5889 36.9867 57.1947 36.696 56.904L31.55 51.758V44C31.55 43.5889 31.3867 43.1947 31.096 42.904L28.75 40.558V39.95H41.2C41.8904 39.95 42.45 40.5096 42.45 41.2V44C42.45 46.4024 44.3976 48.35 46.8 48.35C47.4904 48.35 48.05 48.9096 48.05 49.6C48.05 52.0024 49.9976 53.95 52.4 53.95H55.4447C50.8975 58.8955 44.3876 62.0071 37.15 62.0496ZM35.6 65.15C35.69 65.15 35.7784 65.1423 35.8644 65.1275C36.2411 65.1425 36.6197 65.15 37 65.15C52.5468 65.15 65.15 52.5468 65.15 37C65.15 21.4532 52.5468 8.85 37 8.85C21.4532 8.85 8.85 21.4532 8.85 37C8.85 51.935 20.4806 64.1534 35.1787 65.092C35.3128 65.1298 35.4542 65.15 35.6 65.15ZM22.85 32.158L21.6 33.408L14.3915 26.1995C18.4253 17.771 27.033 11.95 37 11.95C38.8719 11.95 40.6956 12.1553 42.45 12.5445V16C42.45 18.2368 40.6368 20.05 38.4 20.05H35.6C33.1976 20.05 31.25 21.9976 31.25 24.4V27.2C31.25 27.8904 30.6904 28.45 30 28.45H24.4C23.544 28.45 22.85 29.144 22.85 30V32.158Z" fill="#44CD66" stroke="#44CD66" stroke-width="0.3"/>
</g>
<defs>
<clipPath id="clip0_1027_435">
<rect width="74" height="74" fill="white"/>
</clipPath>
</defs>
</svg>
