<svg width="74" height="74" viewBox="0 0 74 74" fill="none" xmlns="http://www.w3.org/2000/svg">
<g clip-path="url(#clip0_1027_441)">
<mask id="path-1-outside-1_1027_441" maskUnits="userSpaceOnUse" x="14" y="7" width="46" height="60" fill="black">
<rect fill="white" x="14" y="7" width="46" height="60"/>
<path d="M18 17.5C18 15.7761 18.6673 14.1228 19.855 12.9038C21.0427 11.6848 22.6536 11 24.3333 11H49.6667C51.3464 11 52.9573 11.6848 54.145 12.9038C55.3327 14.1228 56 15.7761 56 17.5V56.5C56 58.2239 55.3327 59.8772 54.145 61.0962C52.9573 62.3152 51.3464 63 49.6667 63H24.3333C22.6536 63 21.0427 62.3152 19.855 61.0962C18.6673 59.8772 18 58.2239 18 56.5V17.5ZM24.3333 19.125V25.625C24.3333 26.056 24.5001 26.4693 24.7971 26.774C25.094 27.0788 25.4967 27.25 25.9167 27.25H48.0833C48.5033 27.25 48.906 27.0788 49.2029 26.774C49.4999 26.4693 49.6667 26.056 49.6667 25.625V19.125C49.6667 18.694 49.4999 18.2807 49.2029 17.976C48.906 17.6712 48.5033 17.5 48.0833 17.5H25.9167C25.4967 17.5 25.094 17.6712 24.7971 17.976C24.5001 18.2807 24.3333 18.694 24.3333 19.125ZM24.3333 32.125V35.375C24.3333 35.806 24.5001 36.2193 24.7971 36.524C25.094 36.8288 25.4967 37 25.9167 37H29.0833C29.5033 37 29.906 36.8288 30.2029 36.524C30.4999 36.2193 30.6667 35.806 30.6667 35.375V32.125C30.6667 31.694 30.4999 31.2807 30.2029 30.976C29.906 30.6712 29.5033 30.5 29.0833 30.5H25.9167C25.4967 30.5 25.094 30.6712 24.7971 30.976C24.5001 31.2807 24.3333 31.694 24.3333 32.125ZM25.9167 40.25C25.4967 40.25 25.094 40.4212 24.7971 40.726C24.5001 41.0307 24.3333 41.444 24.3333 41.875V45.125C24.3333 45.556 24.5001 45.9693 24.7971 46.274C25.094 46.5788 25.4967 46.75 25.9167 46.75H29.0833C29.5033 46.75 29.906 46.5788 30.2029 46.274C30.4999 45.9693 30.6667 45.556 30.6667 45.125V41.875C30.6667 41.444 30.4999 41.0307 30.2029 40.726C29.906 40.4212 29.5033 40.25 29.0833 40.25H25.9167ZM24.3333 51.625V54.875C24.3333 55.306 24.5001 55.7193 24.7971 56.024C25.094 56.3288 25.4967 56.5 25.9167 56.5H29.0833C29.5033 56.5 29.906 56.3288 30.2029 56.024C30.4999 55.7193 30.6667 55.306 30.6667 54.875V51.625C30.6667 51.194 30.4999 50.7807 30.2029 50.476C29.906 50.1712 29.5033 50 29.0833 50H25.9167C25.4967 50 25.094 50.1712 24.7971 50.476C24.5001 50.7807 24.3333 51.194 24.3333 51.625ZM35.4167 30.5C34.9967 30.5 34.594 30.6712 34.2971 30.976C34.0001 31.2807 33.8333 31.694 33.8333 32.125V35.375C33.8333 35.806 34.0001 36.2193 34.2971 36.524C34.594 36.8288 34.9967 37 35.4167 37H38.5833C39.0033 37 39.406 36.8288 39.7029 36.524C39.9999 36.2193 40.1667 35.806 40.1667 35.375V32.125C40.1667 31.694 39.9999 31.2807 39.7029 30.976C39.406 30.6712 39.0033 30.5 38.5833 30.5H35.4167ZM33.8333 41.875V45.125C33.8333 45.556 34.0001 45.9693 34.2971 46.274C34.594 46.5788 34.9967 46.75 35.4167 46.75H38.5833C39.0033 46.75 39.406 46.5788 39.7029 46.274C39.9999 45.9693 40.1667 45.556 40.1667 45.125V41.875C40.1667 41.444 39.9999 41.0307 39.7029 40.726C39.406 40.4212 39.0033 40.25 38.5833 40.25H35.4167C34.9967 40.25 34.594 40.4212 34.2971 40.726C34.0001 41.0307 33.8333 41.444 33.8333 41.875ZM35.4167 50C34.9967 50 34.594 50.1712 34.2971 50.476C34.0001 50.7807 33.8333 51.194 33.8333 51.625V54.875C33.8333 55.306 34.0001 55.7193 34.2971 56.024C34.594 56.3288 34.9967 56.5 35.4167 56.5H38.5833C39.0033 56.5 39.406 56.3288 39.7029 56.024C39.9999 55.7193 40.1667 55.306 40.1667 54.875V51.625C40.1667 51.194 39.9999 50.7807 39.7029 50.476C39.406 50.1712 39.0033 50 38.5833 50H35.4167ZM43.3333 32.125V35.375C43.3333 35.806 43.5001 36.2193 43.7971 36.524C44.094 36.8288 44.4967 37 44.9167 37H48.0833C48.5033 37 48.906 36.8288 49.2029 36.524C49.4999 36.2193 49.6667 35.806 49.6667 35.375V32.125C49.6667 31.694 49.4999 31.2807 49.2029 30.976C48.906 30.6712 48.5033 30.5 48.0833 30.5H44.9167C44.4967 30.5 44.094 30.6712 43.7971 30.976C43.5001 31.2807 43.3333 31.694 43.3333 32.125ZM44.9167 40.25C44.4967 40.25 44.094 40.4212 43.7971 40.726C43.5001 41.0307 43.3333 41.444 43.3333 41.875V54.875C43.3333 55.306 43.5001 55.7193 43.7971 56.024C44.094 56.3288 44.4967 56.5 44.9167 56.5H48.0833C48.5033 56.5 48.906 56.3288 49.2029 56.024C49.4999 55.7193 49.6667 55.306 49.6667 54.875V41.875C49.6667 41.444 49.4999 41.0307 49.2029 40.726C48.906 40.4212 48.5033 40.25 48.0833 40.25H44.9167Z"/>
</mask>
<path d="M18 17.5C18 15.7761 18.6673 14.1228 19.855 12.9038C21.0427 11.6848 22.6536 11 24.3333 11H49.6667C51.3464 11 52.9573 11.6848 54.145 12.9038C55.3327 14.1228 56 15.7761 56 17.5V56.5C56 58.2239 55.3327 59.8772 54.145 61.0962C52.9573 62.3152 51.3464 63 49.6667 63H24.3333C22.6536 63 21.0427 62.3152 19.855 61.0962C18.6673 59.8772 18 58.2239 18 56.5V17.5ZM24.3333 19.125V25.625C24.3333 26.056 24.5001 26.4693 24.7971 26.774C25.094 27.0788 25.4967 27.25 25.9167 27.25H48.0833C48.5033 27.25 48.906 27.0788 49.2029 26.774C49.4999 26.4693 49.6667 26.056 49.6667 25.625V19.125C49.6667 18.694 49.4999 18.2807 49.2029 17.976C48.906 17.6712 48.5033 17.5 48.0833 17.5H25.9167C25.4967 17.5 25.094 17.6712 24.7971 17.976C24.5001 18.2807 24.3333 18.694 24.3333 19.125ZM24.3333 32.125V35.375C24.3333 35.806 24.5001 36.2193 24.7971 36.524C25.094 36.8288 25.4967 37 25.9167 37H29.0833C29.5033 37 29.906 36.8288 30.2029 36.524C30.4999 36.2193 30.6667 35.806 30.6667 35.375V32.125C30.6667 31.694 30.4999 31.2807 30.2029 30.976C29.906 30.6712 29.5033 30.5 29.0833 30.5H25.9167C25.4967 30.5 25.094 30.6712 24.7971 30.976C24.5001 31.2807 24.3333 31.694 24.3333 32.125ZM25.9167 40.25C25.4967 40.25 25.094 40.4212 24.7971 40.726C24.5001 41.0307 24.3333 41.444 24.3333 41.875V45.125C24.3333 45.556 24.5001 45.9693 24.7971 46.274C25.094 46.5788 25.4967 46.75 25.9167 46.75H29.0833C29.5033 46.75 29.906 46.5788 30.2029 46.274C30.4999 45.9693 30.6667 45.556 30.6667 45.125V41.875C30.6667 41.444 30.4999 41.0307 30.2029 40.726C29.906 40.4212 29.5033 40.25 29.0833 40.25H25.9167ZM24.3333 51.625V54.875C24.3333 55.306 24.5001 55.7193 24.7971 56.024C25.094 56.3288 25.4967 56.5 25.9167 56.5H29.0833C29.5033 56.5 29.906 56.3288 30.2029 56.024C30.4999 55.7193 30.6667 55.306 30.6667 54.875V51.625C30.6667 51.194 30.4999 50.7807 30.2029 50.476C29.906 50.1712 29.5033 50 29.0833 50H25.9167C25.4967 50 25.094 50.1712 24.7971 50.476C24.5001 50.7807 24.3333 51.194 24.3333 51.625ZM35.4167 30.5C34.9967 30.5 34.594 30.6712 34.2971 30.976C34.0001 31.2807 33.8333 31.694 33.8333 32.125V35.375C33.8333 35.806 34.0001 36.2193 34.2971 36.524C34.594 36.8288 34.9967 37 35.4167 37H38.5833C39.0033 37 39.406 36.8288 39.7029 36.524C39.9999 36.2193 40.1667 35.806 40.1667 35.375V32.125C40.1667 31.694 39.9999 31.2807 39.7029 30.976C39.406 30.6712 39.0033 30.5 38.5833 30.5H35.4167ZM33.8333 41.875V45.125C33.8333 45.556 34.0001 45.9693 34.2971 46.274C34.594 46.5788 34.9967 46.75 35.4167 46.75H38.5833C39.0033 46.75 39.406 46.5788 39.7029 46.274C39.9999 45.9693 40.1667 45.556 40.1667 45.125V41.875C40.1667 41.444 39.9999 41.0307 39.7029 40.726C39.406 40.4212 39.0033 40.25 38.5833 40.25H35.4167C34.9967 40.25 34.594 40.4212 34.2971 40.726C34.0001 41.0307 33.8333 41.444 33.8333 41.875ZM35.4167 50C34.9967 50 34.594 50.1712 34.2971 50.476C34.0001 50.7807 33.8333 51.194 33.8333 51.625V54.875C33.8333 55.306 34.0001 55.7193 34.2971 56.024C34.594 56.3288 34.9967 56.5 35.4167 56.5H38.5833C39.0033 56.5 39.406 56.3288 39.7029 56.024C39.9999 55.7193 40.1667 55.306 40.1667 54.875V51.625C40.1667 51.194 39.9999 50.7807 39.7029 50.476C39.406 50.1712 39.0033 50 38.5833 50H35.4167ZM43.3333 32.125V35.375C43.3333 35.806 43.5001 36.2193 43.7971 36.524C44.094 36.8288 44.4967 37 44.9167 37H48.0833C48.5033 37 48.906 36.8288 49.2029 36.524C49.4999 36.2193 49.6667 35.806 49.6667 35.375V32.125C49.6667 31.694 49.4999 31.2807 49.2029 30.976C48.906 30.6712 48.5033 30.5 48.0833 30.5H44.9167C44.4967 30.5 44.094 30.6712 43.7971 30.976C43.5001 31.2807 43.3333 31.694 43.3333 32.125ZM44.9167 40.25C44.4967 40.25 44.094 40.4212 43.7971 40.726C43.5001 41.0307 43.3333 41.444 43.3333 41.875V54.875C43.3333 55.306 43.5001 55.7193 43.7971 56.024C44.094 56.3288 44.4967 56.5 44.9167 56.5H48.0833C48.5033 56.5 48.906 56.3288 49.2029 56.024C49.4999 55.7193 49.6667 55.306 49.6667 54.875V41.875C49.6667 41.444 49.4999 41.0307 49.2029 40.726C48.906 40.4212 48.5033 40.25 48.0833 40.25H44.9167Z" stroke="#44CD66" stroke-width="7" mask="url(#path-1-outside-1_1027_441)"/>
</g>
<defs>
<clipPath id="clip0_1027_441">
<rect width="74" height="74" fill="white"/>
</clipPath>
</defs>
</svg>
