<svg width="188" height="32" viewBox="0 0 188 32" fill="none" xmlns="http://www.w3.org/2000/svg">
<mask id="mask0_1052_103" style="mask-type:alpha" maskUnits="userSpaceOnUse" x="0" y="0" width="188" height="32">
<path fill-rule="evenodd" clip-rule="evenodd" d="M32 15.9801C32 24.8057 24.8366 31.9602 16 31.9602C13.2763 31.9602 10.7116 31.2805 8.46658 30.0816C8.23708 29.9591 7.97035 29.9227 7.71859 29.9883L1.67443 31.5636C0.929876 31.7577 0.254275 31.0733 0.457872 30.3313L2.07163 24.4501C2.14298 24.1901 2.10495 23.913 1.97478 23.6769C0.716104 21.3939 0 18.7705 0 15.9801C0 7.15454 7.16344 0 16 0C24.8366 0 32 7.15454 32 15.9801ZM19.5045 12.4621C19.0714 12.4621 18.6876 12.1833 18.5536 11.7715L17.0778 7.23516C16.7782 6.31431 15.4755 6.31431 15.1759 7.23516L13.7001 11.7715C13.5662 12.1833 13.1823 12.4621 12.7492 12.4621H7.97612C7.0071 12.4621 6.60452 13.7024 7.38881 14.2715L11.2482 17.072C11.5991 17.3266 11.7459 17.7784 11.6118 18.1907L10.1372 22.7236C9.83751 23.6447 10.8915 24.4112 11.6754 23.8423L15.5396 21.0383C15.8898 20.7842 16.3639 20.7842 16.7142 21.0383L20.5783 23.8423C21.3623 24.4112 22.4162 23.6447 22.1166 22.7236L20.6419 18.1907C20.5078 17.7784 20.6546 17.3266 21.0056 17.072L24.8649 14.2715C25.6492 13.7024 25.2466 12.4621 24.2776 12.4621H19.5045Z" fill="#44CD66"/>
<path fill-rule="evenodd" clip-rule="evenodd" d="M71 15.9801C71 24.8057 63.8366 31.9602 55 31.9602C52.2763 31.9602 49.7116 31.2805 47.4666 30.0816C47.2371 29.9591 46.9704 29.9227 46.7186 29.9883L40.6744 31.5636C39.9299 31.7576 39.2543 31.0733 39.4579 30.3313L41.0716 24.4501C41.143 24.1901 41.1049 23.913 40.9748 23.6769C39.7161 21.3939 39 18.7705 39 15.9801C39 7.15454 46.1634 0 55 0C63.8366 0 71 7.15454 71 15.9801ZM58.5045 12.4621C58.0714 12.4621 57.6876 12.1833 57.5536 11.7715L56.0778 7.23516C55.7782 6.31431 54.4755 6.31431 54.1759 7.23515L52.7001 11.7715C52.5662 12.1833 52.1823 12.4621 51.7492 12.4621H46.9761C46.0071 12.4621 45.6045 13.7024 46.3888 14.2715L50.2482 17.072C50.5991 17.3266 50.7459 17.7784 50.6118 18.1907L49.1372 22.7236C48.8375 23.6447 49.8915 24.4112 50.6754 23.8423L54.5396 21.0383C54.8898 20.7842 55.3639 20.7842 55.7142 21.0383L59.5783 23.8423C60.3623 24.4112 61.4162 23.6447 61.1166 22.7236L59.6419 18.1907C59.5078 17.7784 59.6546 17.3266 60.0056 17.072L63.8649 14.2715C64.6492 13.7024 64.2466 12.4621 63.2776 12.4621H58.5045Z" fill="#44CD66"/>
<path fill-rule="evenodd" clip-rule="evenodd" d="M110 15.9801C110 24.8057 102.837 31.9602 94 31.9602C91.2763 31.9602 88.7116 31.2805 86.4666 30.0816C86.2371 29.9591 85.9704 29.9227 85.7186 29.9883L79.6744 31.5636C78.9299 31.7576 78.2543 31.0733 78.4579 30.3313L80.0716 24.4501C80.143 24.1901 80.1049 23.913 79.9748 23.6769C78.7161 21.3939 78 18.7705 78 15.9801C78 7.15454 85.1634 0 94 0C102.837 0 110 7.15454 110 15.9801ZM97.5045 12.4621C97.0714 12.4621 96.6876 12.1833 96.5536 11.7715L95.0778 7.23516C94.7782 6.31431 93.4755 6.31431 93.1759 7.23515L91.7001 11.7715C91.5662 12.1833 91.1823 12.4621 90.7492 12.4621H85.9761C85.0071 12.4621 84.6045 13.7024 85.3888 14.2715L89.2482 17.072C89.5991 17.3266 89.7459 17.7784 89.6118 18.1907L88.1372 22.7236C87.8375 23.6447 88.8914 24.4112 89.6754 23.8423L93.5396 21.0383C93.8898 20.7842 94.3639 20.7842 94.7142 21.0383L98.5783 23.8423C99.3623 24.4112 100.416 23.6447 100.117 22.7236L98.6419 18.1907C98.5078 17.7784 98.6546 17.3266 99.0056 17.072L102.865 14.2715C103.649 13.7024 103.247 12.4621 102.278 12.4621H97.5045Z" fill="#44CD66"/>
<path fill-rule="evenodd" clip-rule="evenodd" d="M149 15.9801C149 24.8057 141.837 31.9602 133 31.9602C130.276 31.9602 127.712 31.2805 125.467 30.0816C125.237 29.9591 124.97 29.9227 124.719 29.9883L118.674 31.5636C117.93 31.7576 117.254 31.0733 117.458 30.3313L119.072 24.4501C119.143 24.1901 119.105 23.913 118.975 23.6769C117.716 21.3939 117 18.7705 117 15.9801C117 7.15454 124.163 0 133 0C141.837 0 149 7.15454 149 15.9801ZM136.505 12.4621C136.071 12.4621 135.688 12.1833 135.554 11.7715L134.078 7.23516C133.778 6.31431 132.475 6.31431 132.176 7.23515L130.7 11.7715C130.566 12.1833 130.182 12.4621 129.749 12.4621H124.976C124.007 12.4621 123.605 13.7024 124.389 14.2715L128.248 17.072C128.599 17.3266 128.746 17.7784 128.612 18.1907L127.137 22.7236C126.838 23.6447 127.891 24.4112 128.675 23.8423L132.54 21.0383C132.89 20.7842 133.364 20.7842 133.714 21.0383L137.578 23.8423C138.362 24.4112 139.416 23.6447 139.117 22.7236L137.642 18.1907C137.508 17.7784 137.655 17.3266 138.006 17.072L141.865 14.2715C142.649 13.7024 142.247 12.4621 141.278 12.4621H136.505Z" fill="#44CD66"/>
<path fill-rule="evenodd" clip-rule="evenodd" d="M188 15.9801C188 24.8057 180.837 31.9602 172 31.9602C169.276 31.9602 166.712 31.2805 164.467 30.0816C164.237 29.9591 163.97 29.9227 163.719 29.9883L157.674 31.5636C156.93 31.7576 156.254 31.0733 156.458 30.3313L158.072 24.4501C158.143 24.1901 158.105 23.913 157.975 23.6769C156.716 21.3939 156 18.7705 156 15.9801C156 7.15454 163.163 0 172 0C180.837 0 188 7.15454 188 15.9801ZM175.505 12.4621C175.071 12.4621 174.688 12.1833 174.554 11.7715L173.078 7.23516C172.778 6.31431 171.475 6.31431 171.176 7.23515L169.7 11.7715C169.566 12.1833 169.182 12.4621 168.749 12.4621H163.976C163.007 12.4621 162.605 13.7024 163.389 14.2715L167.248 17.072C167.599 17.3266 167.746 17.7784 167.612 18.1907L166.137 22.7236C165.838 23.6447 166.891 24.4112 167.675 23.8423L171.54 21.0383C171.89 20.7842 172.364 20.7842 172.714 21.0383L176.578 23.8423C177.362 24.4112 178.416 23.6447 178.117 22.7236L176.642 18.1907C176.508 17.7784 176.655 17.3266 177.006 17.072L180.865 14.2715C181.649 13.7024 181.247 12.4621 180.278 12.4621H175.505Z" fill="#44CD66"/>
</mask>
<g mask="url(#mask0_1052_103)">
<rect width="188" height="32" fill="#C4D0D3" fill-opacity="0.5"/>
<rect width="151" height="32" fill="#44CD66"/>
</g>
</svg>
