<svg width="74" height="74" viewBox="0 0 74 74" fill="none" xmlns="http://www.w3.org/2000/svg">
<g clip-path="url(#clip0_1017_387)">
<path d="M61.8509 49.1484V56.8499C61.8509 59.6114 59.6123 61.8499 56.8509 61.8499H17.1494C14.388 61.8499 12.1494 59.6114 12.1494 56.8499V17.1484C12.1494 14.387 14.388 12.1484 17.1494 12.1484H56.8509C59.6123 12.1484 61.8509 14.387 61.8509 17.1484V24.8499M61.8509 49.1484H42.0002C39.2387 49.1484 37.0002 46.9099 37.0002 44.1484V29.8499C37.0002 27.0885 39.2387 24.8499 42.0002 24.8499H61.8509M61.8509 49.1484V49.1484C63.3759 49.1484 64.6121 47.9122 64.6121 46.3872V27.6111C64.6121 26.0862 63.3759 24.8499 61.8509 24.8499V24.8499" stroke="#44CD66" stroke-width="3.5"/>
<path d="M48.0444 40.8661C50.1793 40.8661 51.9101 39.1354 51.9101 37.0004C51.9101 34.8655 50.1793 33.1348 48.0444 33.1348C45.9094 33.1348 44.1787 34.8655 44.1787 37.0004C44.1787 39.1354 45.9094 40.8661 48.0444 40.8661Z" fill="#44CD66"/>
</g>
<defs>
<clipPath id="clip0_1017_387">
<rect width="74" height="74" fill="white"/>
</clipPath>
</defs>
</svg>
