<svg width="215" height="217" viewBox="0 0 215 217" fill="none" xmlns="http://www.w3.org/2000/svg">
<g clip-path="url(#clip0_1424_203)">
<path d="M59.2985 182.187L62.5446 184.111C76.1845 192.205 91.8225 196.486 107.77 196.495H107.804C156.78 196.495 196.64 156.644 196.658 107.666C196.666 83.9289 187.433 61.6119 170.657 44.8205C153.88 28.0321 131.573 18.7801 107.836 18.7702C58.8239 18.7702 18.9639 58.6148 18.9454 107.593C18.9389 124.377 23.634 140.723 32.5299 154.864L34.6443 158.226L25.6658 191.004L59.2985 182.187ZM0 216.395L15.1662 161.016C5.81152 144.808 0.890266 126.423 0.89797 107.588C0.920773 48.6625 48.8748 0.722656 107.807 0.722656C136.403 0.734982 163.244 11.8643 183.428 32.0652C203.61 52.2658 214.721 79.1176 214.712 107.674C214.687 166.597 166.723 214.546 107.807 214.546C107.809 214.546 107.802 214.546 107.807 214.546H107.761C89.8694 214.54 72.2891 210.052 56.6748 201.536L0 216.395Z" fill="white"/>
<path d="M4.58112 107.64C4.57465 125.821 9.32519 143.571 18.3582 159.219L3.71582 212.681L58.4259 198.335C73.4996 206.55 90.471 210.886 107.743 210.892H107.788C164.667 210.892 210.965 164.607 210.989 107.721C211 80.153 200.275 54.2343 180.788 34.7311C161.305 15.2307 135.394 4.4856 107.783 4.47266C50.9006 4.47266 4.60577 50.7512 4.58112 107.64ZM107.788 210.892C107.787 210.892 107.786 210.892 107.788 210.892Z" fill="url(#paint0_linear_1424_203)"/>
<path d="M0.89797 107.611C0.891498 126.445 5.81275 144.833 15.1674 161.039L0 216.415L56.673 201.555C72.2882 210.07 89.8676 214.558 107.759 214.566H107.805C166.721 214.566 214.686 166.616 214.71 107.694C214.72 79.1356 203.609 52.2844 183.426 32.0848C163.241 11.8851 136.402 0.754514 107.805 0.742188C48.8761 0.742188 0.920824 48.682 0.896171 107.608M34.6454 158.247L32.5299 154.887C23.6341 140.744 18.939 124.398 18.9455 107.616C18.9649 58.6404 58.8239 18.7928 107.836 18.7928C131.571 18.802 153.878 28.055 170.657 44.843C187.434 61.6323 196.666 83.9511 196.659 107.685C196.638 156.664 156.778 196.514 107.803 196.514H107.768C91.821 196.505 76.1818 192.225 62.5428 184.131L59.2967 182.207L25.6645 191.025L34.6454 158.247ZM107.805 214.566C107.804 214.566 107.803 214.566 107.805 214.566Z" fill="url(#paint1_linear_1424_203)"/>
<path fill-rule="evenodd" clip-rule="evenodd" d="M81.0839 62.9396C79.0826 58.491 76.9768 58.402 75.0733 58.3237C73.5155 58.2574 71.7338 58.2618 69.9542 58.2618C68.1725 58.2618 65.2786 58.9303 62.8315 61.6034C60.3823 64.2766 53.4814 70.7384 53.4814 83.8803C53.4814 97.0235 63.0546 109.723 64.3883 111.507C65.7244 113.288 82.8681 141.12 110.017 151.826C132.582 160.724 137.174 158.954 142.071 158.508C146.969 158.064 157.876 152.049 160.101 145.811C162.327 139.574 162.327 134.228 161.66 133.112C160.992 131.998 159.211 131.33 156.54 129.995C153.867 128.659 140.735 122.196 138.287 121.305C135.838 120.414 134.057 119.97 132.275 122.644C130.495 125.315 125.379 131.33 123.82 133.112C122.262 134.897 120.703 135.12 118.032 133.784C115.36 132.443 106.757 129.625 96.5508 120.526C88.6096 113.446 83.249 104.703 81.69 102.028C80.1322 99.357 81.5237 97.9102 82.863 96.5783C84.0632 95.3814 85.5351 93.4594 86.8712 91.9005C88.2039 90.3405 88.6486 89.2273 89.5389 87.4455C90.4304 85.6626 89.9847 84.1026 89.3172 82.7664C88.6486 81.4304 83.4592 68.2217 81.0839 62.9396Z" fill="white"/>
</g>
<defs>
<linearGradient id="paint0_linear_1424_203" x1="107.354" y1="212.66" x2="107.354" y2="4.45078" gradientUnits="userSpaceOnUse">
<stop stop-color="#20B038"/>
<stop offset="1" stop-color="#60D66A"/>
</linearGradient>
<linearGradient id="paint1_linear_1424_203" x1="107.357" y1="216.421" x2="107.357" y2="0.748666" gradientUnits="userSpaceOnUse">
<stop stop-color="#F9F9F9"/>
<stop offset="1" stop-color="white"/>
</linearGradient>
<clipPath id="clip0_1424_203">
<rect width="214.713" height="215.694" fill="white" transform="translate(0 0.722656)"/>
</clipPath>
</defs>
</svg>
