<svg width="74" height="74" viewBox="0 0 74 74" fill="none" xmlns="http://www.w3.org/2000/svg">
<g clip-path="url(#clip0_1027_445)">
<path d="M37.2499 64.4974C26.924 64.4974 18.5342 57.0885 18.5342 47.9759V38.4244C18.5342 37.366 19.4119 36.4883 20.4703 36.4883C21.5287 36.4883 22.4064 37.366 22.4064 38.4244C22.4064 45.1879 28.7827 50.2992 37.2499 50.2992C45.7172 50.2992 52.0935 45.1879 52.0935 38.4244C52.0935 37.366 52.9712 36.4883 54.0296 36.4883C55.088 36.4883 55.9657 37.366 55.9657 38.4244V47.9759C55.9657 57.0885 47.5759 64.4974 37.2499 64.4974ZM22.4064 48.2598C22.5871 55.1008 29.1699 60.6251 37.2499 60.6251C45.33 60.6251 51.9128 55.1008 52.0935 48.2598C48.7375 51.8997 43.4197 54.1714 37.2499 54.1714C31.0802 54.1714 25.7881 51.8997 22.4064 48.2598Z" fill="#44CD66"/>
<path d="M37.2499 41.2685C30.125 41.2685 23.7229 38.0675 20.5993 32.9045C19.257 30.7103 18.5342 28.1546 18.5342 25.5215C18.5342 21.0813 20.5219 16.8993 24.1102 13.7499C27.621 10.678 32.2935 9 37.2499 9C42.2064 9 46.853 10.678 50.3897 13.7241C53.9779 16.8993 55.9657 21.0813 55.9657 25.5215C55.9657 28.1546 55.2429 30.6845 53.9005 32.9045C50.7769 38.0675 44.3748 41.2685 37.2499 41.2685ZM37.2499 12.8722C33.2228 12.8722 29.4539 14.2146 26.6401 16.6928C23.9037 19.0678 22.4064 22.2172 22.4064 25.5215C22.4064 27.4576 22.9227 29.2646 23.9036 30.891C26.356 34.9181 31.4674 37.3963 37.2499 37.3963C43.0324 37.3963 48.1438 34.8923 50.5962 30.891C51.603 29.2646 52.0935 27.4576 52.0935 25.5215C52.0935 22.2172 50.5962 19.0678 47.834 16.6412C45.0202 14.2146 41.277 12.8722 37.2499 12.8722Z" fill="#44CD66"/>
<path d="M37.2499 54.1759C26.5884 54.1759 18.5342 47.4125 18.5342 38.4289V25.5215C18.5342 16.4089 26.924 9 37.2499 9C42.2064 9 46.853 10.678 50.3897 13.7241C53.9779 16.8993 55.9657 21.0813 55.9657 25.5215V38.4289C55.9657 47.4125 47.9115 54.1759 37.2499 54.1759ZM37.2499 12.8722C29.0666 12.8722 22.4064 18.5515 22.4064 25.5215V38.4289C22.4064 45.1924 28.7827 50.3037 37.2499 50.3037C45.7172 50.3037 52.0935 45.1924 52.0935 38.4289V25.5215C52.0935 22.2172 50.5962 19.0678 47.834 16.6412C45.0202 14.2146 41.277 12.8722 37.2499 12.8722Z" fill="#44CD66"/>
<path d="M64.5 34.5V21M64.5 21L60 25.5M64.5 21L69 25.5" stroke="#44CD66" stroke-width="3" stroke-linecap="round" stroke-linejoin="round"/>
<path d="M9.5 37V50.5M9.5 50.5L5 46M9.5 50.5L14 46" stroke="#44CD66" stroke-width="3" stroke-linecap="round" stroke-linejoin="round"/>
</g>
<defs>
<clipPath id="clip0_1027_445">
<rect width="74" height="74" fill="white"/>
</clipPath>
</defs>
</svg>
