<svg width="28" height="28" viewBox="0 0 28 28" fill="none" xmlns="http://www.w3.org/2000/svg">
<path fill-rule="evenodd" clip-rule="evenodd" d="M23.9202 4.06881C21.2885 1.4463 17.7882 0.00133055 14.0588 0C6.37397 0 0.119658 6.22363 0.116984 13.8736C0.115647 16.3191 0.758058 18.7061 1.97804 20.8097L0 28L7.39072 26.0707C9.4269 27.1764 11.7198 27.7585 14.0528 27.7592H14.0588C21.7423 27.7592 27.9974 21.5349 28 13.8849C28.0013 10.1774 26.5527 6.69132 23.9202 4.06881ZM14.0588 25.4161H14.0541C11.9751 25.4155 9.93564 24.8592 8.15617 23.8088L7.73299 23.5587L3.34709 24.7036L4.5176 20.4478L4.24218 20.0114C3.08236 18.1753 2.46937 16.053 2.4707 13.8743C2.47338 7.51626 7.67149 2.34309 14.0635 2.34309C17.1586 2.34442 20.0678 3.54524 22.2557 5.72534C24.4437 7.90478 25.6476 10.8027 25.6463 13.8836C25.6436 20.2423 20.4455 25.4161 14.0588 25.4161ZM20.4147 16.7795C20.0664 16.6059 18.3538 15.7676 18.0343 15.6519C17.7147 15.5361 17.4828 15.4783 17.2508 15.8255C17.0189 16.1728 16.3511 16.9538 16.1478 17.1847C15.9446 17.4162 15.7414 17.4448 15.3931 17.2711C15.0449 17.0975 13.9225 16.7316 12.5915 15.5507C11.5561 14.6313 10.8568 13.4964 10.6536 13.1491C10.4504 12.8019 10.6322 12.6142 10.806 12.4419C10.9624 12.2863 11.1543 12.0368 11.3287 11.8345C11.5033 11.6323 11.5607 11.4873 11.677 11.2564C11.7934 11.0249 11.7352 10.8227 11.6483 10.649C11.5614 10.4754 10.8649 8.76893 10.574 8.07507C10.2912 7.39917 10.0039 7.49098 9.79059 7.47967C9.58736 7.46968 9.35542 7.46769 9.12279 7.46769C8.89016 7.46769 8.51309 7.55418 8.19358 7.90145C7.87407 8.24869 6.97426 9.0876 6.97426 10.7934C6.97426 12.4991 8.22236 14.1484 8.39681 14.3799C8.57127 14.6114 10.8534 18.1127 14.3476 19.6149C15.1786 19.9721 15.8276 20.1857 16.3336 20.3454C17.168 20.6095 17.9273 20.5723 18.5276 20.4831C19.1968 20.3833 20.5886 19.6442 20.8787 18.8345C21.1688 18.0249 21.1688 17.3303 21.0819 17.186C20.995 17.0416 20.7624 16.9545 20.4141 16.7808L20.4147 16.7795Z" fill="#3CA146"/>
</svg>
