<svg width="161" height="31" viewBox="0 0 161 31" fill="none" xmlns="http://www.w3.org/2000/svg">
<path d="M40.4863 22.5L37.0684 8.18359H40.0273L42.1855 18.0176L44.8027 8.18359H48.2402L50.75 18.1836L52.9473 8.18359H55.8574L52.3809 22.5H49.3145L46.4629 11.7969L43.6211 22.5H40.4863ZM60.0566 8.18359V13.4473C60.9421 12.4121 62 11.8945 63.2305 11.8945C63.862 11.8945 64.4316 12.0117 64.9395 12.2461C65.4473 12.4805 65.8281 12.7799 66.082 13.1445C66.3424 13.5091 66.5182 13.9128 66.6094 14.3555C66.707 14.7982 66.7559 15.485 66.7559 16.416V22.5H64.0117V17.0215C64.0117 15.9342 63.9596 15.2441 63.8555 14.9512C63.7513 14.6582 63.5658 14.4271 63.2988 14.2578C63.0384 14.082 62.7096 13.9941 62.3125 13.9941C61.8568 13.9941 61.4499 14.1048 61.0918 14.3262C60.7337 14.5475 60.4701 14.8828 60.3008 15.332C60.138 15.7747 60.0566 16.4323 60.0566 17.3047V22.5H57.3125V8.18359H60.0566ZM71.5996 15.293L69.1094 14.8438C69.3893 13.8411 69.8711 13.099 70.5547 12.6172C71.2383 12.1354 72.2539 11.8945 73.6016 11.8945C74.8255 11.8945 75.737 12.041 76.3359 12.334C76.9349 12.6204 77.3548 12.9883 77.5957 13.4375C77.8431 13.8802 77.9668 14.6973 77.9668 15.8887L77.9375 19.0918C77.9375 20.0033 77.9798 20.6771 78.0645 21.1133C78.1556 21.543 78.3216 22.0052 78.5625 22.5H75.8477C75.776 22.3177 75.6882 22.0475 75.584 21.6895C75.5384 21.5267 75.5059 21.4193 75.4863 21.3672C75.0176 21.8229 74.5163 22.1647 73.9824 22.3926C73.4486 22.6204 72.8789 22.7344 72.2734 22.7344C71.2057 22.7344 70.3626 22.4447 69.7441 21.8652C69.1322 21.2858 68.8262 20.5534 68.8262 19.668C68.8262 19.082 68.9661 18.5612 69.2461 18.1055C69.526 17.6432 69.9167 17.2917 70.418 17.0508C70.9258 16.8034 71.6549 16.5885 72.6055 16.4062C73.888 16.1654 74.7767 15.9408 75.2715 15.7324V15.459C75.2715 14.9316 75.1413 14.5573 74.8809 14.3359C74.6204 14.1081 74.1289 13.9941 73.4062 13.9941C72.918 13.9941 72.5371 14.0918 72.2637 14.2871C71.9902 14.4759 71.7689 14.8112 71.5996 15.293ZM75.2715 17.5195C74.9199 17.6367 74.3633 17.7767 73.6016 17.9395C72.8398 18.1022 72.3418 18.2617 72.1074 18.418C71.7493 18.6719 71.5703 18.9941 71.5703 19.3848C71.5703 19.7689 71.7135 20.1009 72 20.3809C72.2865 20.6608 72.651 20.8008 73.0938 20.8008C73.5885 20.8008 74.0605 20.638 74.5098 20.3125C74.8418 20.0651 75.0599 19.7624 75.1641 19.4043C75.2357 19.1699 75.2715 18.724 75.2715 18.0664V17.5195ZM85.4375 12.1289V14.3164H83.5625V18.4961C83.5625 19.3424 83.5788 19.8372 83.6113 19.9805C83.6504 20.1172 83.7318 20.2311 83.8555 20.3223C83.9857 20.4134 84.1419 20.459 84.3242 20.459C84.5781 20.459 84.946 20.3711 85.4277 20.1953L85.6621 22.3242C85.0241 22.5977 84.3014 22.7344 83.4941 22.7344C82.9993 22.7344 82.5534 22.653 82.1562 22.4902C81.7591 22.321 81.4661 22.1061 81.2773 21.8457C81.0951 21.5788 80.9681 21.2207 80.8965 20.7715C80.8379 20.4525 80.8086 19.8079 80.8086 18.8379V14.3164H79.5488V12.1289H80.8086V10.0684L83.5625 8.4668V12.1289H85.4375ZM86.375 19.541L89.1289 19.1211C89.2461 19.6549 89.4837 20.0618 89.8418 20.3418C90.1999 20.6152 90.7012 20.752 91.3457 20.752C92.0553 20.752 92.5892 20.6217 92.9473 20.3613C93.1882 20.179 93.3086 19.9349 93.3086 19.6289C93.3086 19.4206 93.2435 19.248 93.1133 19.1113C92.9766 18.9811 92.6706 18.8607 92.1953 18.75C89.9818 18.2617 88.5788 17.8158 87.9863 17.4121C87.166 16.8522 86.7559 16.0742 86.7559 15.0781C86.7559 14.1797 87.1107 13.4245 87.8203 12.8125C88.5299 12.2005 89.6302 11.8945 91.1211 11.8945C92.5404 11.8945 93.5951 12.1257 94.2852 12.5879C94.9753 13.0501 95.4505 13.7337 95.7109 14.6387L93.123 15.1172C93.0124 14.7135 92.8008 14.4043 92.4883 14.1895C92.1823 13.9746 91.7428 13.8672 91.1699 13.8672C90.4473 13.8672 89.9297 13.9681 89.6172 14.1699C89.4089 14.3132 89.3047 14.4987 89.3047 14.7266C89.3047 14.9219 89.3958 15.0879 89.5781 15.2246C89.8255 15.4069 90.6784 15.6641 92.1367 15.9961C93.6016 16.3281 94.6237 16.735 95.2031 17.2168C95.776 17.7051 96.0625 18.3854 96.0625 19.2578C96.0625 20.2083 95.6654 21.0254 94.8711 21.709C94.0768 22.3926 92.9017 22.7344 91.3457 22.7344C89.9329 22.7344 88.8132 22.4479 87.9863 21.875C87.166 21.3021 86.6289 20.5241 86.375 19.541ZM111.404 22.5H108.26L107.01 19.248H101.287L100.105 22.5H97.0391L102.615 8.18359H105.672L111.404 22.5ZM106.082 16.8359L104.109 11.5234L102.176 16.8359H106.082ZM112.85 12.1289H115.408V13.6523C115.74 13.1315 116.189 12.7083 116.756 12.3828C117.322 12.0573 117.951 11.8945 118.641 11.8945C119.845 11.8945 120.867 12.3665 121.707 13.3105C122.547 14.2546 122.967 15.5697 122.967 17.2559C122.967 18.9876 122.544 20.3353 121.697 21.2988C120.851 22.2559 119.826 22.7344 118.621 22.7344C118.048 22.7344 117.527 22.6204 117.059 22.3926C116.596 22.1647 116.108 21.7741 115.594 21.2207V26.4453H112.85V12.1289ZM115.564 17.1387C115.564 18.304 115.796 19.1667 116.258 19.7266C116.72 20.2799 117.283 20.5566 117.947 20.5566C118.585 20.5566 119.116 20.3027 119.539 19.7949C119.962 19.2806 120.174 18.4408 120.174 17.2754C120.174 16.1882 119.956 15.3809 119.52 14.8535C119.083 14.3262 118.543 14.0625 117.898 14.0625C117.228 14.0625 116.671 14.3229 116.229 14.8438C115.786 15.3581 115.564 16.123 115.564 17.1387ZM125.076 12.1289H127.635V13.6523C127.967 13.1315 128.416 12.7083 128.982 12.3828C129.549 12.0573 130.177 11.8945 130.867 11.8945C132.072 11.8945 133.094 12.3665 133.934 13.3105C134.773 14.2546 135.193 15.5697 135.193 17.2559C135.193 18.9876 134.77 20.3353 133.924 21.2988C133.077 22.2559 132.052 22.7344 130.848 22.7344C130.275 22.7344 129.754 22.6204 129.285 22.3926C128.823 22.1647 128.335 21.7741 127.82 21.2207V26.4453H125.076V12.1289ZM127.791 17.1387C127.791 18.304 128.022 19.1667 128.484 19.7266C128.947 20.2799 129.51 20.5566 130.174 20.5566C130.812 20.5566 131.342 20.3027 131.766 19.7949C132.189 19.2806 132.4 18.4408 132.4 17.2754C132.4 16.1882 132.182 15.3809 131.746 14.8535C131.31 14.3262 130.77 14.0625 130.125 14.0625C129.454 14.0625 128.898 14.3229 128.455 14.8438C128.012 15.3581 127.791 16.123 127.791 17.1387ZM155.135 22.5H151.99L150.74 19.248H145.018L143.836 22.5H140.77L146.346 8.18359H149.402L155.135 22.5ZM149.812 16.8359L147.84 11.5234L145.906 16.8359H149.812ZM156.59 22.5V8.18359H159.48V22.5H156.59Z" fill="white"/>
<g clip-path="url(#clip0_1026_1013)">
<path d="M23.8017 4.07059C22.5181 2.77502 20.9894 1.74789 19.3048 1.04905C17.6202 0.350202 15.8133 -0.00637748 13.9895 8.63284e-05C6.34725 8.63284e-05 0.119 6.22659 0.112 13.8706C0.112 16.3188 0.7525 18.7006 1.96175 20.8093L0 28.0001L7.357 26.0716C9.39226 27.1792 11.6724 27.7597 13.9895 27.7603H13.9965C21.6405 27.7603 27.867 21.5338 27.874 13.8828C27.8757 12.0594 27.5167 10.2537 26.8175 8.56962C26.1183 6.88558 25.0927 5.35654 23.8 4.07059H23.8017ZM13.9895 25.4118C11.9227 25.4125 9.89398 24.8564 8.1165 23.8018L7.6965 23.5498L3.332 24.6943L4.4975 20.4366L4.2245 19.9973C3.06916 18.1604 2.45813 16.0336 2.46225 13.8636C2.46225 7.51809 7.637 2.34159 13.9965 2.34159C15.5115 2.33887 17.0121 2.63607 18.4118 3.21605C19.8114 3.79603 21.0824 4.64732 22.1515 5.72084C23.2243 6.79017 24.0748 8.06133 24.6539 9.46099C25.233 10.8607 25.5292 12.3611 25.5255 13.8758C25.5185 20.2441 20.3437 25.4118 13.9895 25.4118ZM20.3157 16.7773C19.971 16.6041 18.2682 15.7658 17.948 15.6468C17.6295 15.5331 17.3967 15.4736 17.1692 15.8201C16.9365 16.1648 16.2715 16.9506 16.072 17.1763C15.8725 17.4091 15.666 17.4353 15.3195 17.2638C14.9747 17.0888 13.8565 16.7248 12.5335 15.5401C11.501 14.6213 10.8097 13.4838 10.6032 13.1391C10.4037 12.7926 10.584 12.6071 10.7572 12.4338C10.9095 12.2798 11.102 12.0278 11.2752 11.8283C11.4502 11.6288 11.508 11.4818 11.6217 11.2508C11.7355 11.0163 11.6812 10.8168 11.5955 10.6436C11.508 10.4703 10.8167 8.76059 10.5245 8.07109C10.2445 7.39034 9.95925 7.48484 9.74575 7.47609C9.54625 7.46384 9.3135 7.46384 9.08075 7.46384C8.90499 7.4682 8.73202 7.50886 8.57271 7.58324C8.41341 7.65762 8.27119 7.76413 8.155 7.89609C7.8365 8.24259 6.94575 9.08084 6.94575 10.7906C6.94575 12.5003 8.18825 14.1436 8.36325 14.3763C8.53475 14.6091 10.8027 18.1073 14.2835 19.6123C15.106 19.9711 15.7535 20.1828 16.2592 20.3438C17.0905 20.6098 17.8412 20.5696 18.4397 20.4838C19.1047 20.3823 20.489 19.6438 20.7812 18.8336C21.0682 18.0216 21.0682 17.3286 20.9807 17.1833C20.895 17.0363 20.6622 16.9506 20.3157 16.7773Z" fill="white"/>
</g>
<defs>
<clipPath id="clip0_1026_1013">
<rect width="28" height="28" fill="white"/>
</clipPath>
</defs>
</svg>
